solid OpenSCAD_Model
  facet normal -1 0 0
    outer loop
      vertex -32.15 -35.25 7.62939e-07
      vertex -32.15 35.25 20.6
      vertex -32.15 35.25 7.62939e-07
    endloop
  endfacet
  facet normal -1 -0 0
    outer loop
      vertex -32.15 35.25 20.6
      vertex -32.15 -35.25 7.62939e-07
      vertex -32.15 -35.25 20.6
    endloop
  endfacet
  facet normal 0 0 1
    outer loop
      vertex -28.6128 35.25 20.6
      vertex -31.16 34.2842 20.6
      vertex -28.6128 34.2842 20.6
    endloop
  endfacet
  facet normal 0 0 1
    outer loop
      vertex -31.16 34.2842 20.6
      vertex -32.15 35.25 20.6
      vertex -31.16 -34.2842 20.6
    endloop
  endfacet
  facet normal -0 0 1
    outer loop
      vertex -32.15 35.25 20.6
      vertex -31.16 34.2842 20.6
      vertex -28.6128 35.25 20.6
    endloop
  endfacet
  facet normal -0 0 1
    outer loop
      vertex -31.16 -34.2842 20.6
      vertex -28.6128 -35.25 20.6
      vertex -28.6128 -34.2842 20.6
    endloop
  endfacet
  facet normal 0 0 1
    outer loop
      vertex -31.16 -34.2842 20.6
      vertex -32.15 -35.25 20.6
      vertex -28.6128 -35.25 20.6
    endloop
  endfacet
  facet normal 0 0 1
    outer loop
      vertex -32.15 -35.25 20.6
      vertex -31.16 -34.2842 20.6
      vertex -32.15 35.25 20.6
    endloop
  endfacet
  facet normal 0 0 1
    outer loop
      vertex -7.51285 35.25 20.6
      vertex -10.05 34.2842 20.6
      vertex -7.51285 34.2842 20.6
    endloop
  endfacet
  facet normal 0 0 1
    outer loop
      vertex -10.05 34.2842 20.6
      vertex -11.05 34.2842 20.6
      vertex -10.05 -34.2842 20.6
    endloop
  endfacet
  facet normal 0 0 1
    outer loop
      vertex -7.51285 35.25 20.6
      vertex -11.05 34.2842 20.6
      vertex -10.05 34.2842 20.6
    endloop
  endfacet
  facet normal -0 0 1
    outer loop
      vertex -13.5872 35.25 20.6
      vertex -11.05 34.2842 20.6
      vertex -7.51285 35.25 20.6
    endloop
  endfacet
  facet normal 0 0 1
    outer loop
      vertex -11.05 34.2842 20.6
      vertex -13.5872 35.25 20.6
      vertex -13.5872 34.2842 20.6
    endloop
  endfacet
  facet normal -0 0 1
    outer loop
      vertex -10.05 -34.2842 20.6
      vertex -7.51285 -35.25 20.6
      vertex -7.51285 -34.2842 20.6
    endloop
  endfacet
  facet normal 0 0 1
    outer loop
      vertex -11.05 -34.2842 20.6
      vertex -10.05 -34.2842 20.6
      vertex -11.05 34.2842 20.6
    endloop
  endfacet
  facet normal -0 0 1
    outer loop
      vertex -11.05 -34.2842 20.6
      vertex -7.51285 -35.25 20.6
      vertex -10.05 -34.2842 20.6
    endloop
  endfacet
  facet normal 0 0 1
    outer loop
      vertex -13.5872 -35.25 20.6
      vertex -11.05 -34.2842 20.6
      vertex -13.5872 -34.2842 20.6
    endloop
  endfacet
  facet normal 0 0 1
    outer loop
      vertex -11.05 -34.2842 20.6
      vertex -13.5872 -35.25 20.6
      vertex -7.51285 -35.25 20.6
    endloop
  endfacet
  facet normal 1 -0 0
    outer loop
      vertex -10.05 -34.2842 20.6
      vertex -10.05 34.2842 1
      vertex -10.05 34.2842 20.6
    endloop
  endfacet
  facet normal 1 0 0
    outer loop
      vertex -10.05 34.2842 1
      vertex -10.05 -34.2842 20.6
      vertex -10.05 -34.2842 1
    endloop
  endfacet
  facet normal 0 1 0
    outer loop
      vertex -13.5872 35.25 20.6
      vertex -14.0872 35.25 1
      vertex -21.1 35.25 13.0872
    endloop
  endfacet
  facet normal 0 1 0
    outer loop
      vertex -21.1 35.25 13.0872
      vertex -14.0872 35.25 1
      vertex -21.1 35.25 8.01285
    endloop
  endfacet
  facet normal 0 1 0
    outer loop
      vertex 7.01285 35.25 1
      vertex 7.51285 35.25 20.6
      vertex 14.0872 35.25 1
    endloop
  endfacet
  facet normal 0 1 0
    outer loop
      vertex 7.51285 35.25 20.6
      vertex 7.01285 35.25 1
      vertex 0 35.25 8.01285
    endloop
  endfacet
  facet normal 0 1 0
    outer loop
      vertex 32.15 35.25 20.6
      vertex 21.1 35.25 13.0872
      vertex 28.6128 35.25 20.6
    endloop
  endfacet
  facet normal 0 1 0
    outer loop
      vertex 7.51285 35.25 20.6
      vertex 0 35.25 8.01285
      vertex 0 35.25 13.0872
    endloop
  endfacet
  facet normal 0 1 0
    outer loop
      vertex 14.0872 35.25 1
      vertex 21.1 35.25 13.0872
      vertex 21.1 35.25 8.01285
    endloop
  endfacet
  facet normal 0 1 -0
    outer loop
      vertex 28.1128 35.25 1
      vertex 21.1 35.25 13.0872
      vertex 32.15 35.25 20.6
    endloop
  endfacet
  facet normal 0 1 0
    outer loop
      vertex 21.1 35.25 13.0872
      vertex 28.1128 35.25 1
      vertex 21.1 35.25 8.01285
    endloop
  endfacet
  facet normal 0 1 0
    outer loop
      vertex 32.15 35.25 7.62939e-07
      vertex 14.0872 35.25 1
      vertex 28.1128 35.25 1
    endloop
  endfacet
  facet normal 0 1 0
    outer loop
      vertex 14.0872 35.25 1
      vertex 32.15 35.25 7.62939e-07
      vertex 7.01285 35.25 1
    endloop
  endfacet
  facet normal 0 1 0
    outer loop
      vertex 7.01285 35.25 1
      vertex 32.15 35.25 7.62939e-07
      vertex -7.01285 35.25 1
    endloop
  endfacet
  facet normal 0 1 0
    outer loop
      vertex -32.15 35.25 7.62939e-07
      vertex -7.01285 35.25 1
      vertex 32.15 35.25 7.62939e-07
    endloop
  endfacet
  facet normal 0 1 0
    outer loop
      vertex -7.01285 35.25 1
      vertex -32.15 35.25 7.62939e-07
      vertex -14.0872 35.25 1
    endloop
  endfacet
  facet normal 0 1 -0
    outer loop
      vertex 32.15 35.25 7.62939e-07
      vertex 28.1128 35.25 1
      vertex 32.15 35.25 20.6
    endloop
  endfacet
  facet normal 0 1 -0
    outer loop
      vertex 14.0872 35.25 1
      vertex 13.5872 35.25 20.6
      vertex 21.1 35.25 13.0872
    endloop
  endfacet
  facet normal 0 1 0
    outer loop
      vertex 14.0872 35.25 1
      vertex 7.51285 35.25 20.6
      vertex 13.5872 35.25 20.6
    endloop
  endfacet
  facet normal 0 1 -0
    outer loop
      vertex -7.01285 35.25 1
      vertex -7.51285 35.25 20.6
      vertex 0 35.25 13.0872
    endloop
  endfacet
  facet normal 0 1 0
    outer loop
      vertex -7.51285 35.25 20.6
      vertex -7.01285 35.25 1
      vertex -13.5872 35.25 20.6
    endloop
  endfacet
  facet normal 0 1 0
    outer loop
      vertex -21.1 35.25 13.0872
      vertex -32.15 35.25 20.6
      vertex -28.6128 35.25 20.6
    endloop
  endfacet
  facet normal 0 1 0
    outer loop
      vertex -7.01285 35.25 1
      vertex 0 35.25 13.0872
      vertex 0 35.25 8.01285
    endloop
  endfacet
  facet normal 0 1 0
    outer loop
      vertex -14.0872 35.25 1
      vertex -13.5872 35.25 20.6
      vertex -7.01285 35.25 1
    endloop
  endfacet
  facet normal 0 1 0
    outer loop
      vertex -28.1128 35.25 1
      vertex -21.1 35.25 13.0872
      vertex -21.1 35.25 8.01285
    endloop
  endfacet
  facet normal 0 1 0
    outer loop
      vertex -21.1 35.25 13.0872
      vertex -28.1128 35.25 1
      vertex -32.15 35.25 20.6
    endloop
  endfacet
  facet normal 0 1 0
    outer loop
      vertex -28.1128 35.25 1
      vertex -32.15 35.25 7.62939e-07
      vertex -32.15 35.25 20.6
    endloop
  endfacet
  facet normal 0 1 0
    outer loop
      vertex -14.0872 35.25 1
      vertex -32.15 35.25 7.62939e-07
      vertex -28.1128 35.25 1
    endloop
  endfacet
  facet normal 0 -1 0
    outer loop
      vertex 13.5872 -35.25 20.6
      vertex 14.0872 -35.25 1
      vertex 21.1 -35.25 13.0872
    endloop
  endfacet
  facet normal 0 -1 -0
    outer loop
      vertex 21.1 -35.25 13.0872
      vertex 14.0872 -35.25 1
      vertex 21.1 -35.25 8.01285
    endloop
  endfacet
  facet normal 0 -1 0
    outer loop
      vertex -7.01285 -35.25 1
      vertex -7.51285 -35.25 20.6
      vertex -14.0872 -35.25 1
    endloop
  endfacet
  facet normal 0 -1 0
    outer loop
      vertex -7.51285 -35.25 20.6
      vertex -7.01285 -35.25 1
      vertex 0 -35.25 8.01285
    endloop
  endfacet
  facet normal 0 -1 0
    outer loop
      vertex -32.15 -35.25 20.6
      vertex -21.1 -35.25 13.0872
      vertex -28.6128 -35.25 20.6
    endloop
  endfacet
  facet normal 0 -1 0
    outer loop
      vertex -7.51285 -35.25 20.6
      vertex 0 -35.25 8.01285
      vertex 0 -35.25 13.0872
    endloop
  endfacet
  facet normal 0 -1 0
    outer loop
      vertex -14.0872 -35.25 1
      vertex -21.1 -35.25 13.0872
      vertex -21.1 -35.25 8.01285
    endloop
  endfacet
  facet normal 0 -1 0
    outer loop
      vertex -28.1128 -35.25 1
      vertex -21.1 -35.25 13.0872
      vertex -32.15 -35.25 20.6
    endloop
  endfacet
  facet normal 0 -1 -0
    outer loop
      vertex -21.1 -35.25 13.0872
      vertex -28.1128 -35.25 1
      vertex -21.1 -35.25 8.01285
    endloop
  endfacet
  facet normal 0 -1 0
    outer loop
      vertex -32.15 -35.25 7.62939e-07
      vertex -14.0872 -35.25 1
      vertex -28.1128 -35.25 1
    endloop
  endfacet
  facet normal 0 -1 -0
    outer loop
      vertex -14.0872 -35.25 1
      vertex -32.15 -35.25 7.62939e-07
      vertex -7.01285 -35.25 1
    endloop
  endfacet
  facet normal 0 -1 -0
    outer loop
      vertex -7.01285 -35.25 1
      vertex -32.15 -35.25 7.62939e-07
      vertex 7.01285 -35.25 1
    endloop
  endfacet
  facet normal 0 -1 0
    outer loop
      vertex 32.15 -35.25 7.62939e-07
      vertex 7.01285 -35.25 1
      vertex -32.15 -35.25 7.62939e-07
    endloop
  endfacet
  facet normal 0 -1 0
    outer loop
      vertex 7.01285 -35.25 1
      vertex 32.15 -35.25 7.62939e-07
      vertex 14.0872 -35.25 1
    endloop
  endfacet
  facet normal 0 -1 0
    outer loop
      vertex -32.15 -35.25 7.62939e-07
      vertex -28.1128 -35.25 1
      vertex -32.15 -35.25 20.6
    endloop
  endfacet
  facet normal 0 -1 0
    outer loop
      vertex -14.0872 -35.25 1
      vertex -13.5872 -35.25 20.6
      vertex -21.1 -35.25 13.0872
    endloop
  endfacet
  facet normal 0 -1 0
    outer loop
      vertex -14.0872 -35.25 1
      vertex -7.51285 -35.25 20.6
      vertex -13.5872 -35.25 20.6
    endloop
  endfacet
  facet normal 0 -1 0
    outer loop
      vertex 7.01285 -35.25 1
      vertex 7.51285 -35.25 20.6
      vertex 0 -35.25 13.0872
    endloop
  endfacet
  facet normal 0 -1 -0
    outer loop
      vertex 7.51285 -35.25 20.6
      vertex 7.01285 -35.25 1
      vertex 13.5872 -35.25 20.6
    endloop
  endfacet
  facet normal 0 -1 0
    outer loop
      vertex 21.1 -35.25 13.0872
      vertex 32.15 -35.25 20.6
      vertex 28.6128 -35.25 20.6
    endloop
  endfacet
  facet normal 0 -1 0
    outer loop
      vertex 7.01285 -35.25 1
      vertex 0 -35.25 13.0872
      vertex 0 -35.25 8.01285
    endloop
  endfacet
  facet normal 0 -1 0
    outer loop
      vertex 14.0872 -35.25 1
      vertex 13.5872 -35.25 20.6
      vertex 7.01285 -35.25 1
    endloop
  endfacet
  facet normal 0 -1 0
    outer loop
      vertex 28.1128 -35.25 1
      vertex 21.1 -35.25 13.0872
      vertex 21.1 -35.25 8.01285
    endloop
  endfacet
  facet normal 0 -1 0
    outer loop
      vertex 21.1 -35.25 13.0872
      vertex 28.1128 -35.25 1
      vertex 32.15 -35.25 20.6
    endloop
  endfacet
  facet normal 0 -1 0
    outer loop
      vertex 28.1128 -35.25 1
      vertex 32.15 -35.25 7.62939e-07
      vertex 32.15 -35.25 20.6
    endloop
  endfacet
  facet normal 0 -1 0
    outer loop
      vertex 14.0872 -35.25 1
      vertex 32.15 -35.25 7.62939e-07
      vertex 28.1128 -35.25 1
    endloop
  endfacet
  facet normal 1 -0 0
    outer loop
      vertex -31.16 -34.2842 20.6
      vertex -31.16 34.2842 1
      vertex -31.16 34.2842 20.6
    endloop
  endfacet
  facet normal 1 0 0
    outer loop
      vertex -31.16 34.2842 1
      vertex -31.16 -34.2842 20.6
      vertex -31.16 -34.2842 1
    endloop
  endfacet
  facet normal 0 1 0
    outer loop
      vertex -11.05 -34.2842 20.6
      vertex -21.1 -34.2842 13.0872
      vertex -13.5872 -34.2842 20.6
    endloop
  endfacet
  facet normal 0 1 -0
    outer loop
      vertex -11.05 -34.2842 1
      vertex -21.1 -34.2842 13.0872
      vertex -11.05 -34.2842 20.6
    endloop
  endfacet
  facet normal 0 1 0
    outer loop
      vertex -21.1 -34.2842 13.0872
      vertex -11.05 -34.2842 1
      vertex -21.1 -34.2842 8.01285
    endloop
  endfacet
  facet normal 0 1 0
    outer loop
      vertex -21.1 -34.2842 8.01285
      vertex -11.05 -34.2842 1
      vertex -14.0872 -34.2842 1
    endloop
  endfacet
  facet normal 0 1 0
    outer loop
      vertex -21.1 -34.2842 13.0872
      vertex -31.16 -34.2842 20.6
      vertex -28.6128 -34.2842 20.6
    endloop
  endfacet
  facet normal 0 1 0
    outer loop
      vertex -31.16 -34.2842 1
      vertex -21.1 -34.2842 13.0872
      vertex -21.1 -34.2842 8.01285
    endloop
  endfacet
  facet normal 0 1 0
    outer loop
      vertex -31.16 -34.2842 1
      vertex -21.1 -34.2842 8.01285
      vertex -28.1128 -34.2842 1
    endloop
  endfacet
  facet normal 0 1 0
    outer loop
      vertex -21.1 -34.2842 13.0872
      vertex -31.16 -34.2842 1
      vertex -31.16 -34.2842 20.6
    endloop
  endfacet
  facet normal 0 -1 0
    outer loop
      vertex -31.16 34.2842 20.6
      vertex -21.1 34.2842 13.0872
      vertex -28.6128 34.2842 20.6
    endloop
  endfacet
  facet normal 0 -1 0
    outer loop
      vertex -31.16 34.2842 1
      vertex -21.1 34.2842 13.0872
      vertex -31.16 34.2842 20.6
    endloop
  endfacet
  facet normal 0 -1 -0
    outer loop
      vertex -21.1 34.2842 13.0872
      vertex -31.16 34.2842 1
      vertex -21.1 34.2842 8.01285
    endloop
  endfacet
  facet normal 0 -1 0
    outer loop
      vertex -21.1 34.2842 8.01285
      vertex -31.16 34.2842 1
      vertex -28.1128 34.2842 1
    endloop
  endfacet
  facet normal 0 -1 0
    outer loop
      vertex -21.1 34.2842 13.0872
      vertex -11.05 34.2842 20.6
      vertex -13.5872 34.2842 20.6
    endloop
  endfacet
  facet normal 0 -1 0
    outer loop
      vertex -11.05 34.2842 1
      vertex -21.1 34.2842 13.0872
      vertex -21.1 34.2842 8.01285
    endloop
  endfacet
  facet normal 0 -1 0
    outer loop
      vertex -11.05 34.2842 1
      vertex -21.1 34.2842 8.01285
      vertex -14.0872 34.2842 1
    endloop
  endfacet
  facet normal 0 -1 0
    outer loop
      vertex -21.1 34.2842 13.0872
      vertex -11.05 34.2842 1
      vertex -11.05 34.2842 20.6
    endloop
  endfacet
  facet normal -0.707107 0 0.707107
    outer loop
      vertex -21.1 -34.2842 13.0872
      vertex -13.5872 -35.25 20.6
      vertex -13.5872 -34.2842 20.6
    endloop
  endfacet
  facet normal -0.707107 0 0.707107
    outer loop
      vertex -13.5872 -35.25 20.6
      vertex -21.1 -34.2842 13.0872
      vertex -21.1 -35.25 13.0872
    endloop
  endfacet
  facet normal -0.707107 0 0.707107
    outer loop
      vertex -21.1 35.25 13.0872
      vertex -13.5872 34.2842 20.6
      vertex -13.5872 35.25 20.6
    endloop
  endfacet
  facet normal -0.707107 0 0.707107
    outer loop
      vertex -13.5872 34.2842 20.6
      vertex -21.1 35.25 13.0872
      vertex -21.1 34.2842 13.0872
    endloop
  endfacet
  facet normal 0.707107 0 0.707107
    outer loop
      vertex -28.6128 -34.2842 20.6
      vertex -21.1 -35.25 13.0872
      vertex -21.1 -34.2842 13.0872
    endloop
  endfacet
  facet normal 0.707107 0 0.707107
    outer loop
      vertex -21.1 -35.25 13.0872
      vertex -28.6128 -34.2842 20.6
      vertex -28.6128 -35.25 20.6
    endloop
  endfacet
  facet normal 0.707107 0 0.707107
    outer loop
      vertex -28.6128 35.25 20.6
      vertex -21.1 34.2842 13.0872
      vertex -21.1 35.25 13.0872
    endloop
  endfacet
  facet normal 0.707107 0 0.707107
    outer loop
      vertex -21.1 34.2842 13.0872
      vertex -28.6128 35.25 20.6
      vertex -28.6128 34.2842 20.6
    endloop
  endfacet
  facet normal 0.707107 0 -0.707107
    outer loop
      vertex -21.1 34.2842 8.01285
      vertex -28.1128 35.25 1
      vertex -21.1 35.25 8.01285
    endloop
  endfacet
  facet normal 0.707107 0 -0.707107
    outer loop
      vertex -28.1128 35.25 1
      vertex -21.1 34.2842 8.01285
      vertex -28.1128 34.2842 1
    endloop
  endfacet
  facet normal 0.707107 0 -0.707107
    outer loop
      vertex -21.1 -35.25 8.01285
      vertex -28.1128 -34.2842 1
      vertex -21.1 -34.2842 8.01285
    endloop
  endfacet
  facet normal 0.707107 0 -0.707107
    outer loop
      vertex -28.1128 -34.2842 1
      vertex -21.1 -35.25 8.01285
      vertex -28.1128 -35.25 1
    endloop
  endfacet
  facet normal -0.707107 0 -0.707107
    outer loop
      vertex -14.0872 34.2842 1
      vertex -21.1 35.25 8.01285
      vertex -14.0872 35.25 1
    endloop
  endfacet
  facet normal -0.707107 -0 -0.707107
    outer loop
      vertex -21.1 35.25 8.01285
      vertex -14.0872 34.2842 1
      vertex -21.1 34.2842 8.01285
    endloop
  endfacet
  facet normal -0.707107 0 -0.707107
    outer loop
      vertex -14.0872 -35.25 1
      vertex -21.1 -34.2842 8.01285
      vertex -14.0872 -34.2842 1
    endloop
  endfacet
  facet normal -0.707107 -0 -0.707107
    outer loop
      vertex -21.1 -34.2842 8.01285
      vertex -14.0872 -35.25 1
      vertex -21.1 -35.25 8.01285
    endloop
  endfacet
  facet normal -0 0 1
    outer loop
      vertex -31.16 34.2842 1
      vertex -28.1128 -34.2842 1
      vertex -28.1128 34.2842 1
    endloop
  endfacet
  facet normal 0 0 1
    outer loop
      vertex -28.1128 -34.2842 1
      vertex -31.16 34.2842 1
      vertex -31.16 -34.2842 1
    endloop
  endfacet
  facet normal 0 0 1
    outer loop
      vertex -28.1128 34.2842 1
      vertex -14.0872 34.2842 1
      vertex -14.0872 35.25 1
    endloop
  endfacet
  facet normal 0 0 1
    outer loop
      vertex -14.0872 34.2842 1
      vertex -28.1128 34.2842 1
      vertex -14.0872 -34.2842 1
    endloop
  endfacet
  facet normal 0 0 1
    outer loop
      vertex -28.1128 34.2842 1
      vertex -14.0872 35.25 1
      vertex -28.1128 35.25 1
    endloop
  endfacet
  facet normal 0 0 1
    outer loop
      vertex -28.1128 -34.2842 1
      vertex -14.0872 -34.2842 1
      vertex -28.1128 34.2842 1
    endloop
  endfacet
  facet normal 0 0 1
    outer loop
      vertex -14.0872 -34.2842 1
      vertex -28.1128 -34.2842 1
      vertex -14.0872 -35.25 1
    endloop
  endfacet
  facet normal 0 0 1
    outer loop
      vertex -14.0872 -35.25 1
      vertex -28.1128 -34.2842 1
      vertex -28.1128 -35.25 1
    endloop
  endfacet
  facet normal -0 0 1
    outer loop
      vertex -14.0872 34.2842 1
      vertex -11.05 -34.2842 1
      vertex -11.05 34.2842 1
    endloop
  endfacet
  facet normal 0 0 1
    outer loop
      vertex -11.05 -34.2842 1
      vertex -14.0872 34.2842 1
      vertex -14.0872 -34.2842 1
    endloop
  endfacet
  facet normal 0 0 -1
    outer loop
      vertex -32.15 -35.25 7.62939e-07
      vertex 32.15 35.25 7.62939e-07
      vertex 32.15 -35.25 7.62939e-07
    endloop
  endfacet
  facet normal -0 0 -1
    outer loop
      vertex 32.15 35.25 7.62939e-07
      vertex -32.15 -35.25 7.62939e-07
      vertex -32.15 35.25 7.62939e-07
    endloop
  endfacet
  facet normal -1 0 0
    outer loop
      vertex -11.05 -34.2842 1
      vertex -11.05 34.2842 20.6
      vertex -11.05 34.2842 1
    endloop
  endfacet
  facet normal -1 -0 0
    outer loop
      vertex -11.05 34.2842 20.6
      vertex -11.05 -34.2842 1
      vertex -11.05 -34.2842 20.6
    endloop
  endfacet
  facet normal 0 0 1
    outer loop
      vertex 13.5872 35.25 20.6
      vertex 11.05 34.2842 20.6
      vertex 13.5872 34.2842 20.6
    endloop
  endfacet
  facet normal 0 0 1
    outer loop
      vertex 11.05 34.2842 20.6
      vertex 10.05 34.2842 20.6
      vertex 11.05 -34.2842 20.6
    endloop
  endfacet
  facet normal 0 0 1
    outer loop
      vertex 13.5872 35.25 20.6
      vertex 10.05 34.2842 20.6
      vertex 11.05 34.2842 20.6
    endloop
  endfacet
  facet normal -0 0 1
    outer loop
      vertex 7.51285 35.25 20.6
      vertex 10.05 34.2842 20.6
      vertex 13.5872 35.25 20.6
    endloop
  endfacet
  facet normal 0 0 1
    outer loop
      vertex 10.05 34.2842 20.6
      vertex 7.51285 35.25 20.6
      vertex 7.51285 34.2842 20.6
    endloop
  endfacet
  facet normal -0 0 1
    outer loop
      vertex 11.05 -34.2842 20.6
      vertex 13.5872 -35.25 20.6
      vertex 13.5872 -34.2842 20.6
    endloop
  endfacet
  facet normal 0 0 1
    outer loop
      vertex 10.05 -34.2842 20.6
      vertex 11.05 -34.2842 20.6
      vertex 10.05 34.2842 20.6
    endloop
  endfacet
  facet normal -0 0 1
    outer loop
      vertex 10.05 -34.2842 20.6
      vertex 13.5872 -35.25 20.6
      vertex 11.05 -34.2842 20.6
    endloop
  endfacet
  facet normal 0 0 1
    outer loop
      vertex 7.51285 -35.25 20.6
      vertex 10.05 -34.2842 20.6
      vertex 7.51285 -34.2842 20.6
    endloop
  endfacet
  facet normal 0 0 1
    outer loop
      vertex 10.05 -34.2842 20.6
      vertex 7.51285 -35.25 20.6
      vertex 13.5872 -35.25 20.6
    endloop
  endfacet
  facet normal 1 -0 0
    outer loop
      vertex 11.05 -34.2842 20.6
      vertex 11.05 34.2842 1
      vertex 11.05 34.2842 20.6
    endloop
  endfacet
  facet normal 1 0 0
    outer loop
      vertex 11.05 34.2842 1
      vertex 11.05 -34.2842 20.6
      vertex 11.05 -34.2842 1
    endloop
  endfacet
  facet normal 0 1 0
    outer loop
      vertex 10.05 -34.2842 20.6
      vertex 0 -34.2842 13.0872
      vertex 7.51285 -34.2842 20.6
    endloop
  endfacet
  facet normal 0 1 -0
    outer loop
      vertex 10.05 -34.2842 1
      vertex 0 -34.2842 13.0872
      vertex 10.05 -34.2842 20.6
    endloop
  endfacet
  facet normal 0 1 0
    outer loop
      vertex 0 -34.2842 13.0872
      vertex 10.05 -34.2842 1
      vertex 0 -34.2842 8.01285
    endloop
  endfacet
  facet normal 0 1 0
    outer loop
      vertex 0 -34.2842 8.01285
      vertex 10.05 -34.2842 1
      vertex 7.01285 -34.2842 1
    endloop
  endfacet
  facet normal 0 1 0
    outer loop
      vertex 0 -34.2842 13.0872
      vertex -10.05 -34.2842 20.6
      vertex -7.51285 -34.2842 20.6
    endloop
  endfacet
  facet normal 0 1 0
    outer loop
      vertex -10.05 -34.2842 1
      vertex 0 -34.2842 13.0872
      vertex 0 -34.2842 8.01285
    endloop
  endfacet
  facet normal 0 1 0
    outer loop
      vertex -10.05 -34.2842 1
      vertex 0 -34.2842 8.01285
      vertex -7.01285 -34.2842 1
    endloop
  endfacet
  facet normal 0 1 0
    outer loop
      vertex 0 -34.2842 13.0872
      vertex -10.05 -34.2842 1
      vertex -10.05 -34.2842 20.6
    endloop
  endfacet
  facet normal 0 -1 0
    outer loop
      vertex -10.05 34.2842 20.6
      vertex 0 34.2842 13.0872
      vertex -7.51285 34.2842 20.6
    endloop
  endfacet
  facet normal 0 -1 0
    outer loop
      vertex -10.05 34.2842 1
      vertex 0 34.2842 13.0872
      vertex -10.05 34.2842 20.6
    endloop
  endfacet
  facet normal 0 -1 -0
    outer loop
      vertex 0 34.2842 13.0872
      vertex -10.05 34.2842 1
      vertex 0 34.2842 8.01285
    endloop
  endfacet
  facet normal 0 -1 0
    outer loop
      vertex 0 34.2842 8.01285
      vertex -10.05 34.2842 1
      vertex -7.01285 34.2842 1
    endloop
  endfacet
  facet normal 0 -1 0
    outer loop
      vertex 0 34.2842 13.0872
      vertex 10.05 34.2842 20.6
      vertex 7.51285 34.2842 20.6
    endloop
  endfacet
  facet normal 0 -1 0
    outer loop
      vertex 10.05 34.2842 1
      vertex 0 34.2842 13.0872
      vertex 0 34.2842 8.01285
    endloop
  endfacet
  facet normal 0 -1 0
    outer loop
      vertex 10.05 34.2842 1
      vertex 0 34.2842 8.01285
      vertex 7.01285 34.2842 1
    endloop
  endfacet
  facet normal 0 -1 0
    outer loop
      vertex 0 34.2842 13.0872
      vertex 10.05 34.2842 1
      vertex 10.05 34.2842 20.6
    endloop
  endfacet
  facet normal -0.707107 0 0.707107
    outer loop
      vertex 0 -34.2842 13.0872
      vertex 7.51285 -35.25 20.6
      vertex 7.51285 -34.2842 20.6
    endloop
  endfacet
  facet normal -0.707107 0 0.707107
    outer loop
      vertex 7.51285 -35.25 20.6
      vertex 0 -34.2842 13.0872
      vertex 0 -35.25 13.0872
    endloop
  endfacet
  facet normal -0.707107 0 0.707107
    outer loop
      vertex 0 35.25 13.0872
      vertex 7.51285 34.2842 20.6
      vertex 7.51285 35.25 20.6
    endloop
  endfacet
  facet normal -0.707107 0 0.707107
    outer loop
      vertex 7.51285 34.2842 20.6
      vertex 0 35.25 13.0872
      vertex 0 34.2842 13.0872
    endloop
  endfacet
  facet normal 0.707107 0 0.707107
    outer loop
      vertex -7.51285 -34.2842 20.6
      vertex 0 -35.25 13.0872
      vertex 0 -34.2842 13.0872
    endloop
  endfacet
  facet normal 0.707107 0 0.707107
    outer loop
      vertex 0 -35.25 13.0872
      vertex -7.51285 -34.2842 20.6
      vertex -7.51285 -35.25 20.6
    endloop
  endfacet
  facet normal 0.707107 0 0.707107
    outer loop
      vertex -7.51285 35.25 20.6
      vertex 0 34.2842 13.0872
      vertex 0 35.25 13.0872
    endloop
  endfacet
  facet normal 0.707107 0 0.707107
    outer loop
      vertex 0 34.2842 13.0872
      vertex -7.51285 35.25 20.6
      vertex -7.51285 34.2842 20.6
    endloop
  endfacet
  facet normal 0.707107 0 -0.707107
    outer loop
      vertex 0 34.2842 8.01285
      vertex -7.01285 35.25 1
      vertex 0 35.25 8.01285
    endloop
  endfacet
  facet normal 0.707107 0 -0.707107
    outer loop
      vertex -7.01285 35.25 1
      vertex 0 34.2842 8.01285
      vertex -7.01285 34.2842 1
    endloop
  endfacet
  facet normal 0.707107 0 -0.707107
    outer loop
      vertex 0 -35.25 8.01285
      vertex -7.01285 -34.2842 1
      vertex 0 -34.2842 8.01285
    endloop
  endfacet
  facet normal 0.707107 0 -0.707107
    outer loop
      vertex -7.01285 -34.2842 1
      vertex 0 -35.25 8.01285
      vertex -7.01285 -35.25 1
    endloop
  endfacet
  facet normal -0.707107 0 -0.707107
    outer loop
      vertex 7.01285 34.2842 1
      vertex 0 35.25 8.01285
      vertex 7.01285 35.25 1
    endloop
  endfacet
  facet normal -0.707107 -0 -0.707107
    outer loop
      vertex 0 35.25 8.01285
      vertex 7.01285 34.2842 1
      vertex 0 34.2842 8.01285
    endloop
  endfacet
  facet normal -0.707107 0 -0.707107
    outer loop
      vertex 7.01285 -35.25 1
      vertex 0 -34.2842 8.01285
      vertex 7.01285 -34.2842 1
    endloop
  endfacet
  facet normal -0.707107 -0 -0.707107
    outer loop
      vertex 0 -34.2842 8.01285
      vertex 7.01285 -35.25 1
      vertex 0 -35.25 8.01285
    endloop
  endfacet
  facet normal -0 0 1
    outer loop
      vertex -10.05 34.2842 1
      vertex -7.01285 -34.2842 1
      vertex -7.01285 34.2842 1
    endloop
  endfacet
  facet normal 0 0 1
    outer loop
      vertex -7.01285 -34.2842 1
      vertex -10.05 34.2842 1
      vertex -10.05 -34.2842 1
    endloop
  endfacet
  facet normal 0 0 1
    outer loop
      vertex -7.01285 34.2842 1
      vertex 7.01285 34.2842 1
      vertex 7.01285 35.25 1
    endloop
  endfacet
  facet normal 0 0 1
    outer loop
      vertex 7.01285 34.2842 1
      vertex -7.01285 34.2842 1
      vertex 7.01285 -34.2842 1
    endloop
  endfacet
  facet normal 0 0 1
    outer loop
      vertex -7.01285 34.2842 1
      vertex 7.01285 35.25 1
      vertex -7.01285 35.25 1
    endloop
  endfacet
  facet normal 0 0 1
    outer loop
      vertex -7.01285 -34.2842 1
      vertex 7.01285 -34.2842 1
      vertex -7.01285 34.2842 1
    endloop
  endfacet
  facet normal 0 0 1
    outer loop
      vertex 7.01285 -34.2842 1
      vertex -7.01285 -34.2842 1
      vertex 7.01285 -35.25 1
    endloop
  endfacet
  facet normal 0 0 1
    outer loop
      vertex 7.01285 -35.25 1
      vertex -7.01285 -34.2842 1
      vertex -7.01285 -35.25 1
    endloop
  endfacet
  facet normal -0 0 1
    outer loop
      vertex 7.01285 34.2842 1
      vertex 10.05 -34.2842 1
      vertex 10.05 34.2842 1
    endloop
  endfacet
  facet normal 0 0 1
    outer loop
      vertex 10.05 -34.2842 1
      vertex 7.01285 34.2842 1
      vertex 7.01285 -34.2842 1
    endloop
  endfacet
  facet normal -1 0 0
    outer loop
      vertex 10.05 -34.2842 1
      vertex 10.05 34.2842 20.6
      vertex 10.05 34.2842 1
    endloop
  endfacet
  facet normal -1 -0 0
    outer loop
      vertex 10.05 34.2842 20.6
      vertex 10.05 -34.2842 1
      vertex 10.05 -34.2842 20.6
    endloop
  endfacet
  facet normal 0 0 1
    outer loop
      vertex 32.15 35.25 20.6
      vertex 31.16 34.2842 20.6
      vertex 32.15 -35.25 20.6
    endloop
  endfacet
  facet normal -0 0 1
    outer loop
      vertex 28.6128 35.25 20.6
      vertex 31.16 34.2842 20.6
      vertex 32.15 35.25 20.6
    endloop
  endfacet
  facet normal 0 0 1
    outer loop
      vertex 31.16 34.2842 20.6
      vertex 28.6128 35.25 20.6
      vertex 28.6128 34.2842 20.6
    endloop
  endfacet
  facet normal -0 0 1
    outer loop
      vertex 31.16 -34.2842 20.6
      vertex 32.15 -35.25 20.6
      vertex 31.16 34.2842 20.6
    endloop
  endfacet
  facet normal 0 0 1
    outer loop
      vertex 28.6128 -35.25 20.6
      vertex 31.16 -34.2842 20.6
      vertex 28.6128 -34.2842 20.6
    endloop
  endfacet
  facet normal 0 0 1
    outer loop
      vertex 31.16 -34.2842 20.6
      vertex 28.6128 -35.25 20.6
      vertex 32.15 -35.25 20.6
    endloop
  endfacet
  facet normal 1 -0 0
    outer loop
      vertex 32.15 -35.25 20.6
      vertex 32.15 35.25 7.62939e-07
      vertex 32.15 35.25 20.6
    endloop
  endfacet
  facet normal 1 0 0
    outer loop
      vertex 32.15 35.25 7.62939e-07
      vertex 32.15 -35.25 20.6
      vertex 32.15 -35.25 7.62939e-07
    endloop
  endfacet
  facet normal -1 0 0
    outer loop
      vertex 31.16 -34.2842 1
      vertex 31.16 34.2842 20.6
      vertex 31.16 34.2842 1
    endloop
  endfacet
  facet normal -1 -0 0
    outer loop
      vertex 31.16 34.2842 20.6
      vertex 31.16 -34.2842 1
      vertex 31.16 -34.2842 20.6
    endloop
  endfacet
  facet normal 0 1 0
    outer loop
      vertex 31.16 -34.2842 20.6
      vertex 21.1 -34.2842 13.0872
      vertex 28.6128 -34.2842 20.6
    endloop
  endfacet
  facet normal 0 1 -0
    outer loop
      vertex 31.16 -34.2842 1
      vertex 21.1 -34.2842 13.0872
      vertex 31.16 -34.2842 20.6
    endloop
  endfacet
  facet normal 0 1 0
    outer loop
      vertex 21.1 -34.2842 13.0872
      vertex 31.16 -34.2842 1
      vertex 21.1 -34.2842 8.01285
    endloop
  endfacet
  facet normal 0 1 0
    outer loop
      vertex 21.1 -34.2842 8.01285
      vertex 31.16 -34.2842 1
      vertex 28.1128 -34.2842 1
    endloop
  endfacet
  facet normal 0 1 0
    outer loop
      vertex 21.1 -34.2842 13.0872
      vertex 11.05 -34.2842 20.6
      vertex 13.5872 -34.2842 20.6
    endloop
  endfacet
  facet normal 0 1 0
    outer loop
      vertex 11.05 -34.2842 1
      vertex 21.1 -34.2842 13.0872
      vertex 21.1 -34.2842 8.01285
    endloop
  endfacet
  facet normal 0 1 0
    outer loop
      vertex 11.05 -34.2842 1
      vertex 21.1 -34.2842 8.01285
      vertex 14.0872 -34.2842 1
    endloop
  endfacet
  facet normal 0 1 0
    outer loop
      vertex 21.1 -34.2842 13.0872
      vertex 11.05 -34.2842 1
      vertex 11.05 -34.2842 20.6
    endloop
  endfacet
  facet normal 0 -1 0
    outer loop
      vertex 11.05 34.2842 20.6
      vertex 21.1 34.2842 13.0872
      vertex 13.5872 34.2842 20.6
    endloop
  endfacet
  facet normal 0 -1 0
    outer loop
      vertex 11.05 34.2842 1
      vertex 21.1 34.2842 13.0872
      vertex 11.05 34.2842 20.6
    endloop
  endfacet
  facet normal 0 -1 -0
    outer loop
      vertex 21.1 34.2842 13.0872
      vertex 11.05 34.2842 1
      vertex 21.1 34.2842 8.01285
    endloop
  endfacet
  facet normal 0 -1 0
    outer loop
      vertex 21.1 34.2842 8.01285
      vertex 11.05 34.2842 1
      vertex 14.0872 34.2842 1
    endloop
  endfacet
  facet normal 0 -1 0
    outer loop
      vertex 21.1 34.2842 13.0872
      vertex 31.16 34.2842 20.6
      vertex 28.6128 34.2842 20.6
    endloop
  endfacet
  facet normal 0 -1 0
    outer loop
      vertex 31.16 34.2842 1
      vertex 21.1 34.2842 13.0872
      vertex 21.1 34.2842 8.01285
    endloop
  endfacet
  facet normal 0 -1 0
    outer loop
      vertex 31.16 34.2842 1
      vertex 21.1 34.2842 8.01285
      vertex 28.1128 34.2842 1
    endloop
  endfacet
  facet normal 0 -1 0
    outer loop
      vertex 21.1 34.2842 13.0872
      vertex 31.16 34.2842 1
      vertex 31.16 34.2842 20.6
    endloop
  endfacet
  facet normal -0.707107 0 0.707107
    outer loop
      vertex 21.1 -34.2842 13.0872
      vertex 28.6128 -35.25 20.6
      vertex 28.6128 -34.2842 20.6
    endloop
  endfacet
  facet normal -0.707107 0 0.707107
    outer loop
      vertex 28.6128 -35.25 20.6
      vertex 21.1 -34.2842 13.0872
      vertex 21.1 -35.25 13.0872
    endloop
  endfacet
  facet normal -0.707107 0 0.707107
    outer loop
      vertex 21.1 35.25 13.0872
      vertex 28.6128 34.2842 20.6
      vertex 28.6128 35.25 20.6
    endloop
  endfacet
  facet normal -0.707107 0 0.707107
    outer loop
      vertex 28.6128 34.2842 20.6
      vertex 21.1 35.25 13.0872
      vertex 21.1 34.2842 13.0872
    endloop
  endfacet
  facet normal 0.707107 0 0.707107
    outer loop
      vertex 13.5872 -34.2842 20.6
      vertex 21.1 -35.25 13.0872
      vertex 21.1 -34.2842 13.0872
    endloop
  endfacet
  facet normal 0.707107 0 0.707107
    outer loop
      vertex 21.1 -35.25 13.0872
      vertex 13.5872 -34.2842 20.6
      vertex 13.5872 -35.25 20.6
    endloop
  endfacet
  facet normal 0.707107 0 0.707107
    outer loop
      vertex 13.5872 35.25 20.6
      vertex 21.1 34.2842 13.0872
      vertex 21.1 35.25 13.0872
    endloop
  endfacet
  facet normal 0.707107 0 0.707107
    outer loop
      vertex 21.1 34.2842 13.0872
      vertex 13.5872 35.25 20.6
      vertex 13.5872 34.2842 20.6
    endloop
  endfacet
  facet normal 0.707107 0 -0.707107
    outer loop
      vertex 21.1 34.2842 8.01285
      vertex 14.0872 35.25 1
      vertex 21.1 35.25 8.01285
    endloop
  endfacet
  facet normal 0.707107 0 -0.707107
    outer loop
      vertex 14.0872 35.25 1
      vertex 21.1 34.2842 8.01285
      vertex 14.0872 34.2842 1
    endloop
  endfacet
  facet normal 0.707107 0 -0.707107
    outer loop
      vertex 21.1 -35.25 8.01285
      vertex 14.0872 -34.2842 1
      vertex 21.1 -34.2842 8.01285
    endloop
  endfacet
  facet normal 0.707107 0 -0.707107
    outer loop
      vertex 14.0872 -34.2842 1
      vertex 21.1 -35.25 8.01285
      vertex 14.0872 -35.25 1
    endloop
  endfacet
  facet normal -0.707107 0 -0.707107
    outer loop
      vertex 28.1128 34.2842 1
      vertex 21.1 35.25 8.01285
      vertex 28.1128 35.25 1
    endloop
  endfacet
  facet normal -0.707107 -0 -0.707107
    outer loop
      vertex 21.1 35.25 8.01285
      vertex 28.1128 34.2842 1
      vertex 21.1 34.2842 8.01285
    endloop
  endfacet
  facet normal -0.707107 0 -0.707107
    outer loop
      vertex 28.1128 -35.25 1
      vertex 21.1 -34.2842 8.01285
      vertex 28.1128 -34.2842 1
    endloop
  endfacet
  facet normal -0.707107 -0 -0.707107
    outer loop
      vertex 21.1 -34.2842 8.01285
      vertex 28.1128 -35.25 1
      vertex 21.1 -35.25 8.01285
    endloop
  endfacet
  facet normal -0 0 1
    outer loop
      vertex 11.05 34.2842 1
      vertex 14.0872 -34.2842 1
      vertex 14.0872 34.2842 1
    endloop
  endfacet
  facet normal 0 0 1
    outer loop
      vertex 14.0872 -34.2842 1
      vertex 11.05 34.2842 1
      vertex 11.05 -34.2842 1
    endloop
  endfacet
  facet normal 0 0 1
    outer loop
      vertex 14.0872 34.2842 1
      vertex 28.1128 34.2842 1
      vertex 28.1128 35.25 1
    endloop
  endfacet
  facet normal 0 0 1
    outer loop
      vertex 28.1128 34.2842 1
      vertex 14.0872 34.2842 1
      vertex 28.1128 -34.2842 1
    endloop
  endfacet
  facet normal 0 0 1
    outer loop
      vertex 14.0872 34.2842 1
      vertex 28.1128 35.25 1
      vertex 14.0872 35.25 1
    endloop
  endfacet
  facet normal 0 0 1
    outer loop
      vertex 14.0872 -34.2842 1
      vertex 28.1128 -34.2842 1
      vertex 14.0872 34.2842 1
    endloop
  endfacet
  facet normal 0 0 1
    outer loop
      vertex 28.1128 -34.2842 1
      vertex 14.0872 -34.2842 1
      vertex 28.1128 -35.25 1
    endloop
  endfacet
  facet normal 0 0 1
    outer loop
      vertex 28.1128 -35.25 1
      vertex 14.0872 -34.2842 1
      vertex 14.0872 -35.25 1
    endloop
  endfacet
  facet normal -0 0 1
    outer loop
      vertex 28.1128 34.2842 1
      vertex 31.16 -34.2842 1
      vertex 31.16 34.2842 1
    endloop
  endfacet
  facet normal 0 0 1
    outer loop
      vertex 31.16 -34.2842 1
      vertex 28.1128 34.2842 1
      vertex 28.1128 -34.2842 1
    endloop
  endfacet
endsolid OpenSCAD_Model
