solid OpenSCAD_Model
  facet normal -1 0 0
    outer loop
      vertex -2.5 -15 -2
      vertex -2.5 1 0
      vertex -2.5 1 -2
    endloop
  endfacet
  facet normal -1 -0 0
    outer loop
      vertex -2.5 1 0
      vertex -2.5 -15 -2
      vertex -2.5 -15 0
    endloop
  endfacet
  facet normal 0 0 1
    outer loop
      vertex 42.5 1 0
      vertex 2.5 -1 0
      vertex 42.5 -1 0
    endloop
  endfacet
  facet normal 0 0 1
    outer loop
      vertex 2.5 -1 0
      vertex 1 -11.25 0
      vertex 2.5 -15 0
    endloop
  endfacet
  facet normal 0 0 1
    outer loop
      vertex 2.5 -1 0
      vertex -1 -11.25 0
      vertex 1 -11.25 0
    endloop
  endfacet
  facet normal 0 0 1
    outer loop
      vertex -2.5 -15 0
      vertex -1 -11.25 0
      vertex -2.5 1 0
    endloop
  endfacet
  facet normal 0 0 1
    outer loop
      vertex 2.5 -1 0
      vertex -2.5 1 0
      vertex -1 -11.25 0
    endloop
  endfacet
  facet normal -0 0 1
    outer loop
      vertex -2.5 1 0
      vertex 2.5 -1 0
      vertex 42.5 1 0
    endloop
  endfacet
  facet normal -0 0 1
    outer loop
      vertex 1 -12.75 0
      vertex 2.5 -15 0
      vertex 1 -11.25 0
    endloop
  endfacet
  facet normal -0 0 1
    outer loop
      vertex -1 -12.75 0
      vertex 2.5 -15 0
      vertex 1 -12.75 0
    endloop
  endfacet
  facet normal 0 0 1
    outer loop
      vertex -1 -12.75 0
      vertex -2.5 -15 0
      vertex 2.5 -15 0
    endloop
  endfacet
  facet normal 0 0 1
    outer loop
      vertex -1 -11.25 0
      vertex -2.5 -15 0
      vertex -1 -12.75 0
    endloop
  endfacet
  facet normal 1 -0 0
    outer loop
      vertex 2.5 -15 0
      vertex 2.5 -1 -2
      vertex 2.5 -1 0
    endloop
  endfacet
  facet normal 1 0 0
    outer loop
      vertex 2.5 -1 -2
      vertex 2.5 -15 0
      vertex 2.5 -15 -2
    endloop
  endfacet
  facet normal 0 0 -1
    outer loop
      vertex 1 -11.25 -2
      vertex 2.5 -15 -2
      vertex 1 -12.75 -2
    endloop
  endfacet
  facet normal 0 0 -1
    outer loop
      vertex 2.5 -15 -2
      vertex -1 -12.75 -2
      vertex 1 -12.75 -2
    endloop
  endfacet
  facet normal -0 0 -1
    outer loop
      vertex -1 -12.75 -2
      vertex -2.5 -15 -2
      vertex -1 -11.25 -2
    endloop
  endfacet
  facet normal 0 0 -1
    outer loop
      vertex -2.5 -15 -2
      vertex -1 -12.75 -2
      vertex 2.5 -15 -2
    endloop
  endfacet
  facet normal 0 0 -1
    outer loop
      vertex 2.5 -1 -2
      vertex 47.5 1 -2
      vertex 47.5 -1 -2
    endloop
  endfacet
  facet normal 0 0 -1
    outer loop
      vertex 2.5 -15 -2
      vertex 1 -11.25 -2
      vertex 2.5 -1 -2
    endloop
  endfacet
  facet normal 0 0 -1
    outer loop
      vertex -1 -11.25 -2
      vertex 2.5 -1 -2
      vertex 1 -11.25 -2
    endloop
  endfacet
  facet normal 0 0 -1
    outer loop
      vertex -2.5 1 -2
      vertex -1 -11.25 -2
      vertex -2.5 -15 -2
    endloop
  endfacet
  facet normal 0 0 -1
    outer loop
      vertex 2.5 -1 -2
      vertex -2.5 1 -2
      vertex 47.5 1 -2
    endloop
  endfacet
  facet normal 0 0 -1
    outer loop
      vertex -1 -11.25 -2
      vertex -2.5 1 -2
      vertex 2.5 -1 -2
    endloop
  endfacet
  facet normal 0 -1 0
    outer loop
      vertex -2.5 -15 -2
      vertex 2.5 -15 0
      vertex -2.5 -15 0
    endloop
  endfacet
  facet normal 0 -1 -0
    outer loop
      vertex 2.5 -15 0
      vertex -2.5 -15 -2
      vertex 2.5 -15 -2
    endloop
  endfacet
  facet normal 1 -0 0
    outer loop
      vertex -1 -12.75 0
      vertex -1 -11.25 -2
      vertex -1 -11.25 0
    endloop
  endfacet
  facet normal 1 0 0
    outer loop
      vertex -1 -11.25 -2
      vertex -1 -12.75 0
      vertex -1 -12.75 -2
    endloop
  endfacet
  facet normal -1 0 0
    outer loop
      vertex 1 -12.75 -2
      vertex 1 -11.25 0
      vertex 1 -11.25 -2
    endloop
  endfacet
  facet normal -1 -0 0
    outer loop
      vertex 1 -11.25 0
      vertex 1 -12.75 -2
      vertex 1 -12.75 0
    endloop
  endfacet
  facet normal 0 1 -0
    outer loop
      vertex 1 -12.75 -2
      vertex -1 -12.75 0
      vertex 1 -12.75 0
    endloop
  endfacet
  facet normal 0 1 0
    outer loop
      vertex -1 -12.75 0
      vertex 1 -12.75 -2
      vertex -1 -12.75 -2
    endloop
  endfacet
  facet normal 0 -1 0
    outer loop
      vertex -1 -11.25 -2
      vertex 1 -11.25 0
      vertex -1 -11.25 0
    endloop
  endfacet
  facet normal 0 -1 -0
    outer loop
      vertex 1 -11.25 0
      vertex -1 -11.25 -2
      vertex 1 -11.25 -2
    endloop
  endfacet
  facet normal 1 -0 0
    outer loop
      vertex 47.5 -1 4
      vertex 47.5 1 -2
      vertex 47.5 1 4
    endloop
  endfacet
  facet normal 1 0 0
    outer loop
      vertex 47.5 1 -2
      vertex 47.5 -1 4
      vertex 47.5 -1 -2
    endloop
  endfacet
  facet normal 0 -1 0
    outer loop
      vertex 2.5 -1 0
      vertex 2.5 -1 -2
      vertex 42.5 -1 0
    endloop
  endfacet
  facet normal 0 -1 0
    outer loop
      vertex 42.5 -1 0
      vertex 47.5 -1 4
      vertex 42.5 -1 4
    endloop
  endfacet
  facet normal 0 -1 0
    outer loop
      vertex 42.5 -1 0
      vertex 47.5 -1 -2
      vertex 47.5 -1 4
    endloop
  endfacet
  facet normal 0 -1 0
    outer loop
      vertex 47.5 -1 -2
      vertex 42.5 -1 0
      vertex 2.5 -1 -2
    endloop
  endfacet
  facet normal 0 1 0
    outer loop
      vertex 47.5 1 4
      vertex 42.5 1 0
      vertex 42.5 1 4
    endloop
  endfacet
  facet normal 0 1 -0
    outer loop
      vertex 47.5 1 -2
      vertex 42.5 1 0
      vertex 47.5 1 4
    endloop
  endfacet
  facet normal 0 1 0
    outer loop
      vertex -2.5 1 -2
      vertex 42.5 1 0
      vertex 47.5 1 -2
    endloop
  endfacet
  facet normal 0 1 0
    outer loop
      vertex 42.5 1 0
      vertex -2.5 1 -2
      vertex -2.5 1 0
    endloop
  endfacet
  facet normal -1 0 0
    outer loop
      vertex 42.5 -1 0
      vertex 42.5 1 4
      vertex 42.5 1 0
    endloop
  endfacet
  facet normal -1 -0 0
    outer loop
      vertex 42.5 1 4
      vertex 42.5 -1 0
      vertex 42.5 -1 4
    endloop
  endfacet
  facet normal -0 0 1
    outer loop
      vertex 42.5 1 4
      vertex 47.5 -1 4
      vertex 47.5 1 4
    endloop
  endfacet
  facet normal 0 0 1
    outer loop
      vertex 47.5 -1 4
      vertex 42.5 1 4
      vertex 42.5 -1 4
    endloop
  endfacet
endsolid OpenSCAD_Model
