solid OpenSCAD_Model
  facet normal 0.994522 0.104529 0
    outer loop
      vertex 9 0 5
      vertex 8.80333 1.8712 -5
      vertex 8.80333 1.8712 5
    endloop
  endfacet
  facet normal 0.994522 0.104529 0
    outer loop
      vertex 8.80333 1.8712 -5
      vertex 9 0 5
      vertex 9 0 -5
    endloop
  endfacet
  facet normal -0.994522 0.104529 0
    outer loop
      vertex -9 0 -5
      vertex -8.80333 1.8712 5
      vertex -8.80333 1.8712 -5
    endloop
  endfacet
  facet normal -0.994522 0.104529 0
    outer loop
      vertex -8.80333 1.8712 5
      vertex -9 0 -5
      vertex -9 0 5
    endloop
  endfacet
  facet normal 0 1 -0
    outer loop
      vertex 0.940756 8.9507 -5
      vertex -0.940756 8.9507 5
      vertex 0.940756 8.9507 5
    endloop
  endfacet
  facet normal 0 1 0
    outer loop
      vertex -0.940756 8.9507 5
      vertex 0.940756 8.9507 -5
      vertex -0.940756 8.9507 -5
    endloop
  endfacet
  facet normal 0.587786 0.809017 -0
    outer loop
      vertex 6.02217 6.6883 -5
      vertex 4.5 7.79423 5
      vertex 6.02217 6.6883 5
    endloop
  endfacet
  facet normal 0.587786 0.809017 0
    outer loop
      vertex 4.5 7.79423 5
      vertex 6.02217 6.6883 -5
      vertex 4.5 7.79423 -5
    endloop
  endfacet
  facet normal -0.743145 0.669131 0
    outer loop
      vertex -7.28115 5.29007 -5
      vertex -6.02217 6.6883 5
      vertex -6.02217 6.6883 -5
    endloop
  endfacet
  facet normal -0.743145 0.669131 0
    outer loop
      vertex -6.02217 6.6883 5
      vertex -7.28115 5.29007 -5
      vertex -7.28115 5.29007 5
    endloop
  endfacet
  facet normal -0.866025 0.5 0
    outer loop
      vertex -8.22191 3.66063 -5
      vertex -7.28115 5.29007 5
      vertex -7.28115 5.29007 -5
    endloop
  endfacet
  facet normal -0.866025 0.5 0
    outer loop
      vertex -7.28115 5.29007 5
      vertex -8.22191 3.66063 -5
      vertex -8.22191 3.66063 5
    endloop
  endfacet
  facet normal -0.406737 0.913545 0
    outer loop
      vertex -2.78115 8.55951 -5
      vertex -4.5 7.79423 5
      vertex -2.78115 8.55951 5
    endloop
  endfacet
  facet normal -0.406737 0.913545 0
    outer loop
      vertex -4.5 7.79423 5
      vertex -2.78115 8.55951 -5
      vertex -4.5 7.79423 -5
    endloop
  endfacet
  facet normal 0.866025 0.5 0
    outer loop
      vertex 8.22191 3.66063 5
      vertex 7.28115 5.29007 -5
      vertex 7.28115 5.29007 5
    endloop
  endfacet
  facet normal 0.866025 0.5 0
    outer loop
      vertex 7.28115 5.29007 -5
      vertex 8.22191 3.66063 5
      vertex 8.22191 3.66063 -5
    endloop
  endfacet
  facet normal 0.951057 0.309017 0
    outer loop
      vertex 8.80333 1.8712 5
      vertex 8.22191 3.66063 -5
      vertex 8.22191 3.66063 5
    endloop
  endfacet
  facet normal 0.951057 0.309017 0
    outer loop
      vertex 8.22191 3.66063 -5
      vertex 8.80333 1.8712 5
      vertex 8.80333 1.8712 -5
    endloop
  endfacet
  facet normal 0.743145 0.669131 0
    outer loop
      vertex 7.28115 5.29007 5
      vertex 6.02217 6.6883 -5
      vertex 6.02217 6.6883 5
    endloop
  endfacet
  facet normal 0.743145 0.669131 0
    outer loop
      vertex 6.02217 6.6883 -5
      vertex 7.28115 5.29007 5
      vertex 7.28115 5.29007 -5
    endloop
  endfacet
  facet normal 0.207912 0.978148 -0
    outer loop
      vertex 2.78115 8.55951 -5
      vertex 0.940756 8.9507 5
      vertex 2.78115 8.55951 5
    endloop
  endfacet
  facet normal 0.207912 0.978148 0
    outer loop
      vertex 0.940756 8.9507 5
      vertex 2.78115 8.55951 -5
      vertex 0.940756 8.9507 -5
    endloop
  endfacet
  facet normal 0.406736 0.913546 -0
    outer loop
      vertex 4.5 7.79423 -5
      vertex 2.78115 8.55951 5
      vertex 4.5 7.79423 5
    endloop
  endfacet
  facet normal 0.406736 0.913546 0
    outer loop
      vertex 2.78115 8.55951 5
      vertex 4.5 7.79423 -5
      vertex 2.78115 8.55951 -5
    endloop
  endfacet
  facet normal -0.951057 0.309017 0
    outer loop
      vertex -8.80333 1.8712 -5
      vertex -8.22191 3.66063 5
      vertex -8.22191 3.66063 -5
    endloop
  endfacet
  facet normal -0.951057 0.309017 0
    outer loop
      vertex -8.22191 3.66063 5
      vertex -8.80333 1.8712 -5
      vertex -8.80333 1.8712 5
    endloop
  endfacet
  facet normal 0 0 1
    outer loop
      vertex 1.5 0 5
      vertex 9 0 5
      vertex 8.80333 1.8712 5
    endloop
  endfacet
  facet normal 0 0 1
    outer loop
      vertex 1.46722 0.311867 5
      vertex 8.80333 1.8712 5
      vertex 8.22191 3.66063 5
    endloop
  endfacet
  facet normal 0 0 1
    outer loop
      vertex 9 0 5
      vertex 1.5 0 5
      vertex 8.80333 -1.8712 5
    endloop
  endfacet
  facet normal 0 0 1
    outer loop
      vertex 1.37032 0.610105 5
      vertex 8.22191 3.66063 5
      vertex 7.28115 5.29007 5
    endloop
  endfacet
  facet normal -0 0 1
    outer loop
      vertex 1.46722 -0.311867 5
      vertex 8.80333 -1.8712 5
      vertex 1.5 0 5
    endloop
  endfacet
  facet normal 0 0 1
    outer loop
      vertex 1.21352 0.881678 5
      vertex 7.28115 5.29007 5
      vertex 6.02217 6.6883 5
    endloop
  endfacet
  facet normal 0 0 1
    outer loop
      vertex 8.80333 -1.8712 5
      vertex 1.46722 -0.311867 5
      vertex 8.22191 -3.66063 5
    endloop
  endfacet
  facet normal 0 0 1
    outer loop
      vertex 1.0037 1.11472 5
      vertex 6.02217 6.6883 5
      vertex 4.5 7.79423 5
    endloop
  endfacet
  facet normal -0 0 1
    outer loop
      vertex 1.37032 -0.610105 5
      vertex 8.22191 -3.66063 5
      vertex 1.46722 -0.311867 5
    endloop
  endfacet
  facet normal 0 0 1
    outer loop
      vertex 0.75 1.29904 5
      vertex 4.5 7.79423 5
      vertex 2.78115 8.55951 5
    endloop
  endfacet
  facet normal 0 0 1
    outer loop
      vertex 8.22191 -3.66063 5
      vertex 1.37032 -0.610105 5
      vertex 7.28115 -5.29007 5
    endloop
  endfacet
  facet normal -0 0 1
    outer loop
      vertex 1.21352 -0.881678 5
      vertex 7.28115 -5.29007 5
      vertex 1.37032 -0.610105 5
    endloop
  endfacet
  facet normal 0 0 1
    outer loop
      vertex 8.80333 1.8712 5
      vertex 1.46722 0.311867 5
      vertex 1.5 0 5
    endloop
  endfacet
  facet normal 0 0 1
    outer loop
      vertex 8.22191 3.66063 5
      vertex 1.37032 0.610105 5
      vertex 1.46722 0.311867 5
    endloop
  endfacet
  facet normal 0 0 1
    outer loop
      vertex 7.28115 5.29007 5
      vertex 1.21352 0.881678 5
      vertex 1.37032 0.610105 5
    endloop
  endfacet
  facet normal 0 0 1
    outer loop
      vertex 6.02217 6.6883 5
      vertex 1.0037 1.11472 5
      vertex 1.21352 0.881678 5
    endloop
  endfacet
  facet normal 0 0 1
    outer loop
      vertex 0.463525 1.42658 5
      vertex 2.78115 8.55951 5
      vertex 0.940756 8.9507 5
    endloop
  endfacet
  facet normal 0 0 1
    outer loop
      vertex 4.5 7.79423 5
      vertex 0.75 1.29904 5
      vertex 1.0037 1.11472 5
    endloop
  endfacet
  facet normal 0 0 1
    outer loop
      vertex 2.78115 8.55951 5
      vertex 0.463525 1.42658 5
      vertex 0.75 1.29904 5
    endloop
  endfacet
  facet normal 0 0 1
    outer loop
      vertex 0.940756 8.9507 5
      vertex 0.156793 1.49178 5
      vertex 0.463525 1.42658 5
    endloop
  endfacet
  facet normal 0 0 1
    outer loop
      vertex 0.940756 8.9507 5
      vertex -0.156793 1.49178 5
      vertex 0.156793 1.49178 5
    endloop
  endfacet
  facet normal -0 0 1
    outer loop
      vertex -0.940756 8.9507 5
      vertex -0.156793 1.49178 5
      vertex 0.940756 8.9507 5
    endloop
  endfacet
  facet normal 0 0 1
    outer loop
      vertex -0.156793 1.49178 5
      vertex -0.940756 8.9507 5
      vertex -0.463525 1.42658 5
    endloop
  endfacet
  facet normal -0 0 1
    outer loop
      vertex -2.78115 8.55951 5
      vertex -0.463525 1.42658 5
      vertex -0.940756 8.9507 5
    endloop
  endfacet
  facet normal 0 0 1
    outer loop
      vertex -0.463525 1.42658 5
      vertex -2.78115 8.55951 5
      vertex -0.749999 1.29904 5
    endloop
  endfacet
  facet normal -0 0 1
    outer loop
      vertex -4.5 7.79423 5
      vertex -0.749999 1.29904 5
      vertex -2.78115 8.55951 5
    endloop
  endfacet
  facet normal 0 0 1
    outer loop
      vertex -0.749999 1.29904 5
      vertex -4.5 7.79423 5
      vertex -1.0037 1.11472 5
    endloop
  endfacet
  facet normal -0 0 1
    outer loop
      vertex -6.02217 6.6883 5
      vertex -1.0037 1.11472 5
      vertex -4.5 7.79423 5
    endloop
  endfacet
  facet normal 0 0 1
    outer loop
      vertex -1.0037 1.11472 5
      vertex -6.02217 6.6883 5
      vertex -1.21352 0.881678 5
    endloop
  endfacet
  facet normal -0 0 1
    outer loop
      vertex -7.28115 5.29007 5
      vertex -1.21352 0.881678 5
      vertex -6.02217 6.6883 5
    endloop
  endfacet
  facet normal 0 0 1
    outer loop
      vertex 7.28115 -5.29007 5
      vertex 1.21352 -0.881678 5
      vertex 6.02217 -6.6883 5
    endloop
  endfacet
  facet normal -0 0 1
    outer loop
      vertex 1.0037 -1.11472 5
      vertex 6.02217 -6.6883 5
      vertex 1.21352 -0.881678 5
    endloop
  endfacet
  facet normal 0 0 1
    outer loop
      vertex 6.02217 -6.6883 5
      vertex 1.0037 -1.11472 5
      vertex 4.5 -7.79423 5
    endloop
  endfacet
  facet normal -0 0 1
    outer loop
      vertex 0.75 -1.29904 5
      vertex 4.5 -7.79423 5
      vertex 1.0037 -1.11472 5
    endloop
  endfacet
  facet normal 0 0 1
    outer loop
      vertex 4.5 -7.79423 5
      vertex 0.75 -1.29904 5
      vertex 2.78115 -8.55951 5
    endloop
  endfacet
  facet normal -0 0 1
    outer loop
      vertex 0.463525 -1.42658 5
      vertex 2.78115 -8.55951 5
      vertex 0.75 -1.29904 5
    endloop
  endfacet
  facet normal 0 0 1
    outer loop
      vertex 2.78115 -8.55951 5
      vertex 0.463525 -1.42658 5
      vertex 0.940756 -8.9507 5
    endloop
  endfacet
  facet normal -0 0 1
    outer loop
      vertex 0.156793 -1.49178 5
      vertex 0.940756 -8.9507 5
      vertex 0.463525 -1.42658 5
    endloop
  endfacet
  facet normal -0 0 1
    outer loop
      vertex -0.156793 -1.49178 5
      vertex 0.940756 -8.9507 5
      vertex 0.156793 -1.49178 5
    endloop
  endfacet
  facet normal 0 0 1
    outer loop
      vertex -0.940756 -8.9507 5
      vertex -0.156793 -1.49178 5
      vertex -0.463525 -1.42658 5
    endloop
  endfacet
  facet normal 0 0 1
    outer loop
      vertex -2.78115 -8.55951 5
      vertex -0.463525 -1.42658 5
      vertex -0.75 -1.29904 5
    endloop
  endfacet
  facet normal 0 0 1
    outer loop
      vertex -0.156793 -1.49178 5
      vertex -0.940756 -8.9507 5
      vertex 0.940756 -8.9507 5
    endloop
  endfacet
  facet normal 0 0 1
    outer loop
      vertex -4.5 -7.79423 5
      vertex -0.75 -1.29904 5
      vertex -1.0037 -1.11472 5
    endloop
  endfacet
  facet normal 0 0 1
    outer loop
      vertex -6.02217 -6.6883 5
      vertex -1.0037 -1.11472 5
      vertex -1.21352 -0.881678 5
    endloop
  endfacet
  facet normal 0 0 1
    outer loop
      vertex -7.28115 -5.29007 5
      vertex -1.21352 -0.881678 5
      vertex -1.37032 -0.610105 5
    endloop
  endfacet
  facet normal 0 0 1
    outer loop
      vertex -8.22191 -3.66063 5
      vertex -1.37032 -0.610105 5
      vertex -1.46722 -0.311867 5
    endloop
  endfacet
  facet normal 0 0 1
    outer loop
      vertex -8.80333 -1.8712 5
      vertex -1.46722 -0.311867 5
      vertex -1.5 0 5
    endloop
  endfacet
  facet normal 0 0 1
    outer loop
      vertex -1.21352 0.881678 5
      vertex -7.28115 5.29007 5
      vertex -1.37032 0.610105 5
    endloop
  endfacet
  facet normal 0 0 1
    outer loop
      vertex -0.463525 -1.42658 5
      vertex -2.78115 -8.55951 5
      vertex -0.940756 -8.9507 5
    endloop
  endfacet
  facet normal -0 0 1
    outer loop
      vertex -8.22191 3.66063 5
      vertex -1.37032 0.610105 5
      vertex -7.28115 5.29007 5
    endloop
  endfacet
  facet normal 0 0 1
    outer loop
      vertex -0.75 -1.29904 5
      vertex -4.5 -7.79423 5
      vertex -2.78115 -8.55951 5
    endloop
  endfacet
  facet normal 0 0 1
    outer loop
      vertex -1.37032 0.610105 5
      vertex -8.22191 3.66063 5
      vertex -1.46722 0.311867 5
    endloop
  endfacet
  facet normal 0 0 1
    outer loop
      vertex -1.0037 -1.11472 5
      vertex -6.02217 -6.6883 5
      vertex -4.5 -7.79423 5
    endloop
  endfacet
  facet normal -0 0 1
    outer loop
      vertex -8.80333 1.8712 5
      vertex -1.46722 0.311867 5
      vertex -8.22191 3.66063 5
    endloop
  endfacet
  facet normal 0 0 1
    outer loop
      vertex -1.21352 -0.881678 5
      vertex -7.28115 -5.29007 5
      vertex -6.02217 -6.6883 5
    endloop
  endfacet
  facet normal 0 0 1
    outer loop
      vertex -1.46722 0.311867 5
      vertex -8.80333 1.8712 5
      vertex -1.5 0 5
    endloop
  endfacet
  facet normal 0 0 1
    outer loop
      vertex -1.37032 -0.610105 5
      vertex -8.22191 -3.66063 5
      vertex -7.28115 -5.29007 5
    endloop
  endfacet
  facet normal 0 0 1
    outer loop
      vertex -9 0 5
      vertex -1.5 0 5
      vertex -8.80333 1.8712 5
    endloop
  endfacet
  facet normal 0 0 1
    outer loop
      vertex -1.46722 -0.311867 5
      vertex -8.80333 -1.8712 5
      vertex -8.22191 -3.66063 5
    endloop
  endfacet
  facet normal 0 0 1
    outer loop
      vertex -1.5 0 5
      vertex -9 0 5
      vertex -8.80333 -1.8712 5
    endloop
  endfacet
  facet normal -0.587785 0.809017 0
    outer loop
      vertex -4.5 7.79423 -5
      vertex -6.02217 6.6883 5
      vertex -4.5 7.79423 5
    endloop
  endfacet
  facet normal -0.587785 0.809017 0
    outer loop
      vertex -6.02217 6.6883 5
      vertex -4.5 7.79423 -5
      vertex -6.02217 6.6883 -5
    endloop
  endfacet
  facet normal -0.207912 0.978148 0
    outer loop
      vertex -0.940756 8.9507 -5
      vertex -2.78115 8.55951 5
      vertex -0.940756 8.9507 5
    endloop
  endfacet
  facet normal -0.207912 0.978148 0
    outer loop
      vertex -2.78115 8.55951 5
      vertex -0.940756 8.9507 -5
      vertex -2.78115 8.55951 -5
    endloop
  endfacet
  facet normal 0.994522 -0.104529 0
    outer loop
      vertex 8.80333 -1.8712 5
      vertex 9 0 -5
      vertex 9 0 5
    endloop
  endfacet
  facet normal 0.994522 -0.104529 0
    outer loop
      vertex 9 0 -5
      vertex 8.80333 -1.8712 5
      vertex 8.80333 -1.8712 -5
    endloop
  endfacet
  facet normal -0.207912 -0.978148 0
    outer loop
      vertex -2.78115 -8.55951 -5
      vertex -0.940756 -8.9507 5
      vertex -2.78115 -8.55951 5
    endloop
  endfacet
  facet normal -0.207912 -0.978148 -0
    outer loop
      vertex -0.940756 -8.9507 5
      vertex -2.78115 -8.55951 -5
      vertex -0.940756 -8.9507 -5
    endloop
  endfacet
  facet normal 0.743145 -0.669131 0
    outer loop
      vertex 6.02217 -6.6883 5
      vertex 7.28115 -5.29007 -5
      vertex 7.28115 -5.29007 5
    endloop
  endfacet
  facet normal 0.743145 -0.669131 0
    outer loop
      vertex 7.28115 -5.29007 -5
      vertex 6.02217 -6.6883 5
      vertex 6.02217 -6.6883 -5
    endloop
  endfacet
  facet normal 0.951057 -0.309017 0
    outer loop
      vertex 8.22191 -3.66063 5
      vertex 8.80333 -1.8712 -5
      vertex 8.80333 -1.8712 5
    endloop
  endfacet
  facet normal 0.951057 -0.309017 0
    outer loop
      vertex 8.80333 -1.8712 -5
      vertex 8.22191 -3.66063 5
      vertex 8.22191 -3.66063 -5
    endloop
  endfacet
  facet normal 0.866025 -0.5 0
    outer loop
      vertex 7.28115 -5.29007 5
      vertex 8.22191 -3.66063 -5
      vertex 8.22191 -3.66063 5
    endloop
  endfacet
  facet normal 0.866025 -0.5 0
    outer loop
      vertex 8.22191 -3.66063 -5
      vertex 7.28115 -5.29007 5
      vertex 7.28115 -5.29007 -5
    endloop
  endfacet
  facet normal -0.866025 -0.5 0
    outer loop
      vertex -7.28115 -5.29007 -5
      vertex -8.22191 -3.66063 5
      vertex -8.22191 -3.66063 -5
    endloop
  endfacet
  facet normal -0.866025 -0.5 0
    outer loop
      vertex -8.22191 -3.66063 5
      vertex -7.28115 -5.29007 -5
      vertex -7.28115 -5.29007 5
    endloop
  endfacet
  facet normal -0.994522 -0.104529 0
    outer loop
      vertex -8.80333 -1.8712 -5
      vertex -9 0 5
      vertex -9 0 -5
    endloop
  endfacet
  facet normal -0.994522 -0.104529 0
    outer loop
      vertex -9 0 5
      vertex -8.80333 -1.8712 -5
      vertex -8.80333 -1.8712 5
    endloop
  endfacet
  facet normal -0.951057 -0.309017 0
    outer loop
      vertex -8.22191 -3.66063 -5
      vertex -8.80333 -1.8712 5
      vertex -8.80333 -1.8712 -5
    endloop
  endfacet
  facet normal -0.951057 -0.309017 0
    outer loop
      vertex -8.80333 -1.8712 5
      vertex -8.22191 -3.66063 -5
      vertex -8.22191 -3.66063 5
    endloop
  endfacet
  facet normal 0.207912 -0.978148 0
    outer loop
      vertex 0.940756 -8.9507 -5
      vertex 2.78115 -8.55951 5
      vertex 0.940756 -8.9507 5
    endloop
  endfacet
  facet normal 0.207912 -0.978148 0
    outer loop
      vertex 2.78115 -8.55951 5
      vertex 0.940756 -8.9507 -5
      vertex 2.78115 -8.55951 -5
    endloop
  endfacet
  facet normal 0.587786 -0.809017 0
    outer loop
      vertex 4.5 -7.79423 -5
      vertex 6.02217 -6.6883 5
      vertex 4.5 -7.79423 5
    endloop
  endfacet
  facet normal 0.587786 -0.809017 0
    outer loop
      vertex 6.02217 -6.6883 5
      vertex 4.5 -7.79423 -5
      vertex 6.02217 -6.6883 -5
    endloop
  endfacet
  facet normal 0 -1 0
    outer loop
      vertex -0.940756 -8.9507 -5
      vertex 0.940756 -8.9507 5
      vertex -0.940756 -8.9507 5
    endloop
  endfacet
  facet normal 0 -1 -0
    outer loop
      vertex 0.940756 -8.9507 5
      vertex -0.940756 -8.9507 -5
      vertex 0.940756 -8.9507 -5
    endloop
  endfacet
  facet normal -0.406736 -0.913546 0
    outer loop
      vertex -4.5 -7.79423 -5
      vertex -2.78115 -8.55951 5
      vertex -4.5 -7.79423 5
    endloop
  endfacet
  facet normal -0.406736 -0.913546 -0
    outer loop
      vertex -2.78115 -8.55951 5
      vertex -4.5 -7.79423 -5
      vertex -2.78115 -8.55951 -5
    endloop
  endfacet
  facet normal -0.743145 -0.669131 0
    outer loop
      vertex -6.02217 -6.6883 -5
      vertex -7.28115 -5.29007 5
      vertex -7.28115 -5.29007 -5
    endloop
  endfacet
  facet normal -0.743145 -0.669131 0
    outer loop
      vertex -7.28115 -5.29007 5
      vertex -6.02217 -6.6883 -5
      vertex -6.02217 -6.6883 5
    endloop
  endfacet
  facet normal 0 0 -1
    outer loop
      vertex 1.5 0 -5
      vertex 9 0 -5
      vertex 8.80333 -1.8712 -5
    endloop
  endfacet
  facet normal 0 0 -1
    outer loop
      vertex 1.46722 -0.311867 -5
      vertex 8.80333 -1.8712 -5
      vertex 8.22191 -3.66063 -5
    endloop
  endfacet
  facet normal 0 0 -1
    outer loop
      vertex 9 0 -5
      vertex 1.5 0 -5
      vertex 8.80333 1.8712 -5
    endloop
  endfacet
  facet normal 0 0 -1
    outer loop
      vertex 1.37032 -0.610105 -5
      vertex 8.22191 -3.66063 -5
      vertex 7.28115 -5.29007 -5
    endloop
  endfacet
  facet normal 0 0 -1
    outer loop
      vertex 1.46722 0.311867 -5
      vertex 8.80333 1.8712 -5
      vertex 1.5 0 -5
    endloop
  endfacet
  facet normal 0 0 -1
    outer loop
      vertex 1.21352 -0.881678 -5
      vertex 7.28115 -5.29007 -5
      vertex 6.02217 -6.6883 -5
    endloop
  endfacet
  facet normal -0 0 -1
    outer loop
      vertex 8.80333 1.8712 -5
      vertex 1.46722 0.311867 -5
      vertex 8.22191 3.66063 -5
    endloop
  endfacet
  facet normal 0 0 -1
    outer loop
      vertex 1.0037 -1.11472 -5
      vertex 6.02217 -6.6883 -5
      vertex 4.5 -7.79423 -5
    endloop
  endfacet
  facet normal 0 0 -1
    outer loop
      vertex 1.37032 0.610105 -5
      vertex 8.22191 3.66063 -5
      vertex 1.46722 0.311867 -5
    endloop
  endfacet
  facet normal 0 0 -1
    outer loop
      vertex 0.75 -1.29904 -5
      vertex 4.5 -7.79423 -5
      vertex 2.78115 -8.55951 -5
    endloop
  endfacet
  facet normal -0 0 -1
    outer loop
      vertex 8.22191 3.66063 -5
      vertex 1.37032 0.610105 -5
      vertex 7.28115 5.29007 -5
    endloop
  endfacet
  facet normal 0 0 -1
    outer loop
      vertex 1.21352 0.881678 -5
      vertex 7.28115 5.29007 -5
      vertex 1.37032 0.610105 -5
    endloop
  endfacet
  facet normal 0 0 -1
    outer loop
      vertex 8.80333 -1.8712 -5
      vertex 1.46722 -0.311867 -5
      vertex 1.5 0 -5
    endloop
  endfacet
  facet normal 0 0 -1
    outer loop
      vertex 8.22191 -3.66063 -5
      vertex 1.37032 -0.610105 -5
      vertex 1.46722 -0.311867 -5
    endloop
  endfacet
  facet normal 0 0 -1
    outer loop
      vertex 7.28115 -5.29007 -5
      vertex 1.21352 -0.881678 -5
      vertex 1.37032 -0.610105 -5
    endloop
  endfacet
  facet normal 0 0 -1
    outer loop
      vertex 6.02217 -6.6883 -5
      vertex 1.0037 -1.11472 -5
      vertex 1.21352 -0.881678 -5
    endloop
  endfacet
  facet normal 0 0 -1
    outer loop
      vertex 0.463525 -1.42658 -5
      vertex 2.78115 -8.55951 -5
      vertex 0.940756 -8.9507 -5
    endloop
  endfacet
  facet normal 0 0 -1
    outer loop
      vertex 4.5 -7.79423 -5
      vertex 0.75 -1.29904 -5
      vertex 1.0037 -1.11472 -5
    endloop
  endfacet
  facet normal 0 0 -1
    outer loop
      vertex 2.78115 -8.55951 -5
      vertex 0.463525 -1.42658 -5
      vertex 0.75 -1.29904 -5
    endloop
  endfacet
  facet normal 0 0 -1
    outer loop
      vertex 0.940756 -8.9507 -5
      vertex 0.156793 -1.49178 -5
      vertex 0.463525 -1.42658 -5
    endloop
  endfacet
  facet normal 0 0 -1
    outer loop
      vertex 0.940756 -8.9507 -5
      vertex -0.156793 -1.49178 -5
      vertex 0.156793 -1.49178 -5
    endloop
  endfacet
  facet normal 0 0 -1
    outer loop
      vertex -0.940756 -8.9507 -5
      vertex -0.156793 -1.49178 -5
      vertex 0.940756 -8.9507 -5
    endloop
  endfacet
  facet normal -0 0 -1
    outer loop
      vertex -0.156793 -1.49178 -5
      vertex -0.940756 -8.9507 -5
      vertex -0.463525 -1.42658 -5
    endloop
  endfacet
  facet normal 0 0 -1
    outer loop
      vertex -2.78115 -8.55951 -5
      vertex -0.463525 -1.42658 -5
      vertex -0.940756 -8.9507 -5
    endloop
  endfacet
  facet normal -0 0 -1
    outer loop
      vertex -0.463525 -1.42658 -5
      vertex -2.78115 -8.55951 -5
      vertex -0.75 -1.29904 -5
    endloop
  endfacet
  facet normal 0 0 -1
    outer loop
      vertex -4.5 -7.79423 -5
      vertex -0.75 -1.29904 -5
      vertex -2.78115 -8.55951 -5
    endloop
  endfacet
  facet normal -0 0 -1
    outer loop
      vertex -0.75 -1.29904 -5
      vertex -4.5 -7.79423 -5
      vertex -1.0037 -1.11472 -5
    endloop
  endfacet
  facet normal 0 0 -1
    outer loop
      vertex -6.02217 -6.6883 -5
      vertex -1.0037 -1.11472 -5
      vertex -4.5 -7.79423 -5
    endloop
  endfacet
  facet normal -0 0 -1
    outer loop
      vertex -1.0037 -1.11472 -5
      vertex -6.02217 -6.6883 -5
      vertex -1.21352 -0.881678 -5
    endloop
  endfacet
  facet normal 0 0 -1
    outer loop
      vertex -7.28115 -5.29007 -5
      vertex -1.21352 -0.881678 -5
      vertex -6.02217 -6.6883 -5
    endloop
  endfacet
  facet normal -0 0 -1
    outer loop
      vertex 7.28115 5.29007 -5
      vertex 1.21352 0.881678 -5
      vertex 6.02217 6.6883 -5
    endloop
  endfacet
  facet normal 0 0 -1
    outer loop
      vertex 1.0037 1.11472 -5
      vertex 6.02217 6.6883 -5
      vertex 1.21352 0.881678 -5
    endloop
  endfacet
  facet normal -0 0 -1
    outer loop
      vertex 6.02217 6.6883 -5
      vertex 1.0037 1.11472 -5
      vertex 4.5 7.79423 -5
    endloop
  endfacet
  facet normal 0 0 -1
    outer loop
      vertex 0.75 1.29904 -5
      vertex 4.5 7.79423 -5
      vertex 1.0037 1.11472 -5
    endloop
  endfacet
  facet normal -0 0 -1
    outer loop
      vertex 4.5 7.79423 -5
      vertex 0.75 1.29904 -5
      vertex 2.78115 8.55951 -5
    endloop
  endfacet
  facet normal 0 0 -1
    outer loop
      vertex 0.463525 1.42658 -5
      vertex 2.78115 8.55951 -5
      vertex 0.75 1.29904 -5
    endloop
  endfacet
  facet normal -0 0 -1
    outer loop
      vertex 2.78115 8.55951 -5
      vertex 0.463525 1.42658 -5
      vertex 0.940756 8.9507 -5
    endloop
  endfacet
  facet normal 0 0 -1
    outer loop
      vertex 0.156793 1.49178 -5
      vertex 0.940756 8.9507 -5
      vertex 0.463525 1.42658 -5
    endloop
  endfacet
  facet normal 0 0 -1
    outer loop
      vertex -0.156793 1.49178 -5
      vertex 0.940756 8.9507 -5
      vertex 0.156793 1.49178 -5
    endloop
  endfacet
  facet normal 0 0 -1
    outer loop
      vertex -0.940756 8.9507 -5
      vertex -0.156793 1.49178 -5
      vertex -0.463525 1.42658 -5
    endloop
  endfacet
  facet normal 0 0 -1
    outer loop
      vertex -2.78115 8.55951 -5
      vertex -0.463525 1.42658 -5
      vertex -0.749999 1.29904 -5
    endloop
  endfacet
  facet normal 0 0 -1
    outer loop
      vertex -0.156793 1.49178 -5
      vertex -0.940756 8.9507 -5
      vertex 0.940756 8.9507 -5
    endloop
  endfacet
  facet normal 0 0 -1
    outer loop
      vertex -4.5 7.79423 -5
      vertex -0.749999 1.29904 -5
      vertex -1.0037 1.11472 -5
    endloop
  endfacet
  facet normal 0 0 -1
    outer loop
      vertex -6.02217 6.6883 -5
      vertex -1.0037 1.11472 -5
      vertex -1.21352 0.881678 -5
    endloop
  endfacet
  facet normal 0 0 -1
    outer loop
      vertex -7.28115 5.29007 -5
      vertex -1.21352 0.881678 -5
      vertex -1.37032 0.610105 -5
    endloop
  endfacet
  facet normal 0 0 -1
    outer loop
      vertex -8.22191 3.66063 -5
      vertex -1.37032 0.610105 -5
      vertex -1.46722 0.311867 -5
    endloop
  endfacet
  facet normal 0 0 -1
    outer loop
      vertex -8.80333 1.8712 -5
      vertex -1.46722 0.311867 -5
      vertex -1.5 0 -5
    endloop
  endfacet
  facet normal -0 0 -1
    outer loop
      vertex -1.21352 -0.881678 -5
      vertex -7.28115 -5.29007 -5
      vertex -1.37032 -0.610105 -5
    endloop
  endfacet
  facet normal 0 0 -1
    outer loop
      vertex -0.463525 1.42658 -5
      vertex -2.78115 8.55951 -5
      vertex -0.940756 8.9507 -5
    endloop
  endfacet
  facet normal 0 0 -1
    outer loop
      vertex -0.749999 1.29904 -5
      vertex -4.5 7.79423 -5
      vertex -2.78115 8.55951 -5
    endloop
  endfacet
  facet normal 0 0 -1
    outer loop
      vertex -8.22191 -3.66063 -5
      vertex -1.37032 -0.610105 -5
      vertex -7.28115 -5.29007 -5
    endloop
  endfacet
  facet normal -0 0 -1
    outer loop
      vertex -1.37032 -0.610105 -5
      vertex -8.22191 -3.66063 -5
      vertex -1.46722 -0.311867 -5
    endloop
  endfacet
  facet normal 0 0 -1
    outer loop
      vertex -1.0037 1.11472 -5
      vertex -6.02217 6.6883 -5
      vertex -4.5 7.79423 -5
    endloop
  endfacet
  facet normal 0 0 -1
    outer loop
      vertex -8.80333 -1.8712 -5
      vertex -1.46722 -0.311867 -5
      vertex -8.22191 -3.66063 -5
    endloop
  endfacet
  facet normal 0 0 -1
    outer loop
      vertex -1.21352 0.881678 -5
      vertex -7.28115 5.29007 -5
      vertex -6.02217 6.6883 -5
    endloop
  endfacet
  facet normal -0 0 -1
    outer loop
      vertex -1.46722 -0.311867 -5
      vertex -8.80333 -1.8712 -5
      vertex -1.5 0 -5
    endloop
  endfacet
  facet normal 0 0 -1
    outer loop
      vertex -1.37032 0.610105 -5
      vertex -8.22191 3.66063 -5
      vertex -7.28115 5.29007 -5
    endloop
  endfacet
  facet normal 0 0 -1
    outer loop
      vertex -9 0 -5
      vertex -1.5 0 -5
      vertex -8.80333 -1.8712 -5
    endloop
  endfacet
  facet normal 0 0 -1
    outer loop
      vertex -1.46722 0.311867 -5
      vertex -8.80333 1.8712 -5
      vertex -8.22191 3.66063 -5
    endloop
  endfacet
  facet normal 0 0 -1
    outer loop
      vertex -1.5 0 -5
      vertex -9 0 -5
      vertex -8.80333 1.8712 -5
    endloop
  endfacet
  facet normal 0.406736 -0.913546 0
    outer loop
      vertex 2.78115 -8.55951 -5
      vertex 4.5 -7.79423 5
      vertex 2.78115 -8.55951 5
    endloop
  endfacet
  facet normal 0.406736 -0.913546 0
    outer loop
      vertex 4.5 -7.79423 5
      vertex 2.78115 -8.55951 -5
      vertex 4.5 -7.79423 -5
    endloop
  endfacet
  facet normal -0.587786 -0.809017 0
    outer loop
      vertex -6.02217 -6.6883 -5
      vertex -4.5 -7.79423 5
      vertex -6.02217 -6.6883 5
    endloop
  endfacet
  facet normal -0.587786 -0.809017 -0
    outer loop
      vertex -4.5 -7.79423 5
      vertex -6.02217 -6.6883 -5
      vertex -4.5 -7.79423 -5
    endloop
  endfacet
  facet normal -0.994522 -0.104529 0
    outer loop
      vertex 1.5 0 -5
      vertex 1.46722 0.311867 5
      vertex 1.46722 0.311867 -5
    endloop
  endfacet
  facet normal -0.994522 -0.104529 0
    outer loop
      vertex 1.46722 0.311867 5
      vertex 1.5 0 -5
      vertex 1.5 0 5
    endloop
  endfacet
  facet normal 0.994522 -0.104529 0
    outer loop
      vertex -1.5 0 5
      vertex -1.46722 0.311867 -5
      vertex -1.46722 0.311867 5
    endloop
  endfacet
  facet normal 0.994522 -0.104529 0
    outer loop
      vertex -1.46722 0.311867 -5
      vertex -1.5 0 5
      vertex -1.5 0 -5
    endloop
  endfacet
  facet normal 0 -1 0
    outer loop
      vertex -0.156793 1.49178 -5
      vertex 0.156793 1.49178 5
      vertex -0.156793 1.49178 5
    endloop
  endfacet
  facet normal 0 -1 -0
    outer loop
      vertex 0.156793 1.49178 5
      vertex -0.156793 1.49178 -5
      vertex 0.156793 1.49178 -5
    endloop
  endfacet
  facet normal 0 1 -0
    outer loop
      vertex 0.156793 -1.49178 -5
      vertex -0.156793 -1.49178 5
      vertex 0.156793 -1.49178 5
    endloop
  endfacet
  facet normal 0 1 0
    outer loop
      vertex -0.156793 -1.49178 5
      vertex 0.156793 -1.49178 -5
      vertex -0.156793 -1.49178 -5
    endloop
  endfacet
  facet normal -0.587787 -0.809016 0
    outer loop
      vertex 0.75 1.29904 -5
      vertex 1.0037 1.11472 5
      vertex 0.75 1.29904 5
    endloop
  endfacet
  facet normal -0.587787 -0.809016 -0
    outer loop
      vertex 1.0037 1.11472 5
      vertex 0.75 1.29904 -5
      vertex 1.0037 1.11472 -5
    endloop
  endfacet
  facet normal 0.743145 -0.669131 0
    outer loop
      vertex -1.21352 0.881678 5
      vertex -1.0037 1.11472 -5
      vertex -1.0037 1.11472 5
    endloop
  endfacet
  facet normal 0.743145 -0.669131 0
    outer loop
      vertex -1.0037 1.11472 -5
      vertex -1.21352 0.881678 5
      vertex -1.21352 0.881678 -5
    endloop
  endfacet
  facet normal 0.406736 -0.913546 0
    outer loop
      vertex -0.749999 1.29904 -5
      vertex -0.463525 1.42658 5
      vertex -0.749999 1.29904 5
    endloop
  endfacet
  facet normal 0.406736 -0.913546 0
    outer loop
      vertex -0.463525 1.42658 5
      vertex -0.749999 1.29904 -5
      vertex -0.463525 1.42658 -5
    endloop
  endfacet
  facet normal -0.951056 0.309018 0
    outer loop
      vertex 1.37032 -0.610105 -5
      vertex 1.46722 -0.311867 5
      vertex 1.46722 -0.311867 -5
    endloop
  endfacet
  facet normal -0.951056 0.309018 0
    outer loop
      vertex 1.46722 -0.311867 5
      vertex 1.37032 -0.610105 -5
      vertex 1.37032 -0.610105 5
    endloop
  endfacet
  facet normal -0.866026 -0.5 0
    outer loop
      vertex 1.37032 0.610105 -5
      vertex 1.21352 0.881678 5
      vertex 1.21352 0.881678 -5
    endloop
  endfacet
  facet normal -0.866026 -0.5 0
    outer loop
      vertex 1.21352 0.881678 5
      vertex 1.37032 0.610105 -5
      vertex 1.37032 0.610105 5
    endloop
  endfacet
  facet normal -0.951056 -0.309018 0
    outer loop
      vertex 1.46722 0.311867 -5
      vertex 1.37032 0.610105 5
      vertex 1.37032 0.610105 -5
    endloop
  endfacet
  facet normal -0.951056 -0.309018 0
    outer loop
      vertex 1.37032 0.610105 5
      vertex 1.46722 0.311867 -5
      vertex 1.46722 0.311867 5
    endloop
  endfacet
  facet normal -0.743145 -0.669131 0
    outer loop
      vertex 1.21352 0.881678 -5
      vertex 1.0037 1.11472 5
      vertex 1.0037 1.11472 -5
    endloop
  endfacet
  facet normal -0.743145 -0.669131 0
    outer loop
      vertex 1.0037 1.11472 5
      vertex 1.21352 0.881678 -5
      vertex 1.21352 0.881678 5
    endloop
  endfacet
  facet normal -0.207912 -0.978148 0
    outer loop
      vertex 0.156793 1.49178 -5
      vertex 0.463525 1.42658 5
      vertex 0.156793 1.49178 5
    endloop
  endfacet
  facet normal -0.207912 -0.978148 -0
    outer loop
      vertex 0.463525 1.42658 5
      vertex 0.156793 1.49178 -5
      vertex 0.463525 1.42658 -5
    endloop
  endfacet
  facet normal -0.406735 -0.913546 0
    outer loop
      vertex 0.463525 1.42658 -5
      vertex 0.75 1.29904 5
      vertex 0.463525 1.42658 5
    endloop
  endfacet
  facet normal -0.406735 -0.913546 -0
    outer loop
      vertex 0.75 1.29904 5
      vertex 0.463525 1.42658 -5
      vertex 0.75 1.29904 -5
    endloop
  endfacet
  facet normal 0.866026 -0.5 0
    outer loop
      vertex -1.37032 0.610105 5
      vertex -1.21352 0.881678 -5
      vertex -1.21352 0.881678 5
    endloop
  endfacet
  facet normal 0.866026 -0.5 0
    outer loop
      vertex -1.21352 0.881678 -5
      vertex -1.37032 0.610105 5
      vertex -1.37032 0.610105 -5
    endloop
  endfacet
  facet normal 0.951056 -0.309018 0
    outer loop
      vertex -1.46722 0.311867 5
      vertex -1.37032 0.610105 -5
      vertex -1.37032 0.610105 5
    endloop
  endfacet
  facet normal 0.951056 -0.309018 0
    outer loop
      vertex -1.37032 0.610105 -5
      vertex -1.46722 0.311867 5
      vertex -1.46722 0.311867 -5
    endloop
  endfacet
  facet normal 0.587786 -0.809017 0
    outer loop
      vertex -1.0037 1.11472 -5
      vertex -0.749999 1.29904 5
      vertex -1.0037 1.11472 5
    endloop
  endfacet
  facet normal 0.587786 -0.809017 0
    outer loop
      vertex -0.749999 1.29904 5
      vertex -1.0037 1.11472 -5
      vertex -0.749999 1.29904 -5
    endloop
  endfacet
  facet normal 0.207912 -0.978148 0
    outer loop
      vertex -0.463525 1.42658 -5
      vertex -0.156793 1.49178 5
      vertex -0.463525 1.42658 5
    endloop
  endfacet
  facet normal 0.207912 -0.978148 0
    outer loop
      vertex -0.156793 1.49178 5
      vertex -0.463525 1.42658 -5
      vertex -0.156793 1.49178 -5
    endloop
  endfacet
  facet normal -0.994522 0.104529 0
    outer loop
      vertex 1.46722 -0.311867 -5
      vertex 1.5 0 5
      vertex 1.5 0 -5
    endloop
  endfacet
  facet normal -0.994522 0.104529 0
    outer loop
      vertex 1.5 0 5
      vertex 1.46722 -0.311867 -5
      vertex 1.46722 -0.311867 5
    endloop
  endfacet
  facet normal -0.866026 0.5 0
    outer loop
      vertex 1.21352 -0.881678 -5
      vertex 1.37032 -0.610105 5
      vertex 1.37032 -0.610105 -5
    endloop
  endfacet
  facet normal -0.866026 0.5 0
    outer loop
      vertex 1.37032 -0.610105 5
      vertex 1.21352 -0.881678 -5
      vertex 1.21352 -0.881678 5
    endloop
  endfacet
  facet normal -0.587787 0.809016 0
    outer loop
      vertex 1.0037 -1.11472 -5
      vertex 0.75 -1.29904 5
      vertex 1.0037 -1.11472 5
    endloop
  endfacet
  facet normal -0.587787 0.809016 0
    outer loop
      vertex 0.75 -1.29904 5
      vertex 1.0037 -1.11472 -5
      vertex 0.75 -1.29904 -5
    endloop
  endfacet
  facet normal 0.207912 0.978148 -0
    outer loop
      vertex -0.156793 -1.49178 -5
      vertex -0.463525 -1.42658 5
      vertex -0.156793 -1.49178 5
    endloop
  endfacet
  facet normal 0.207912 0.978148 0
    outer loop
      vertex -0.463525 -1.42658 5
      vertex -0.156793 -1.49178 -5
      vertex -0.463525 -1.42658 -5
    endloop
  endfacet
  facet normal 0.743145 0.669131 0
    outer loop
      vertex -1.0037 -1.11472 5
      vertex -1.21352 -0.881678 -5
      vertex -1.21352 -0.881678 5
    endloop
  endfacet
  facet normal 0.743145 0.669131 0
    outer loop
      vertex -1.21352 -0.881678 -5
      vertex -1.0037 -1.11472 5
      vertex -1.0037 -1.11472 -5
    endloop
  endfacet
  facet normal 0.866026 0.5 0
    outer loop
      vertex -1.21352 -0.881678 5
      vertex -1.37032 -0.610105 -5
      vertex -1.37032 -0.610105 5
    endloop
  endfacet
  facet normal 0.866026 0.5 0
    outer loop
      vertex -1.37032 -0.610105 -5
      vertex -1.21352 -0.881678 5
      vertex -1.21352 -0.881678 -5
    endloop
  endfacet
  facet normal 0.951056 0.309018 0
    outer loop
      vertex -1.37032 -0.610105 5
      vertex -1.46722 -0.311867 -5
      vertex -1.46722 -0.311867 5
    endloop
  endfacet
  facet normal 0.951056 0.309018 0
    outer loop
      vertex -1.46722 -0.311867 -5
      vertex -1.37032 -0.610105 5
      vertex -1.37032 -0.610105 -5
    endloop
  endfacet
  facet normal 0.994522 0.104529 0
    outer loop
      vertex -1.46722 -0.311867 5
      vertex -1.5 0 -5
      vertex -1.5 0 5
    endloop
  endfacet
  facet normal 0.994522 0.104529 0
    outer loop
      vertex -1.5 0 -5
      vertex -1.46722 -0.311867 5
      vertex -1.46722 -0.311867 -5
    endloop
  endfacet
  facet normal -0.406735 0.913546 0
    outer loop
      vertex 0.75 -1.29904 -5
      vertex 0.463525 -1.42658 5
      vertex 0.75 -1.29904 5
    endloop
  endfacet
  facet normal -0.406735 0.913546 0
    outer loop
      vertex 0.463525 -1.42658 5
      vertex 0.75 -1.29904 -5
      vertex 0.463525 -1.42658 -5
    endloop
  endfacet
  facet normal -0.207912 0.978148 0
    outer loop
      vertex 0.463525 -1.42658 -5
      vertex 0.156793 -1.49178 5
      vertex 0.463525 -1.42658 5
    endloop
  endfacet
  facet normal -0.207912 0.978148 0
    outer loop
      vertex 0.156793 -1.49178 5
      vertex 0.463525 -1.42658 -5
      vertex 0.156793 -1.49178 -5
    endloop
  endfacet
  facet normal -0.743145 0.669131 0
    outer loop
      vertex 1.0037 -1.11472 -5
      vertex 1.21352 -0.881678 5
      vertex 1.21352 -0.881678 -5
    endloop
  endfacet
  facet normal -0.743145 0.669131 0
    outer loop
      vertex 1.21352 -0.881678 5
      vertex 1.0037 -1.11472 -5
      vertex 1.0037 -1.11472 5
    endloop
  endfacet
  facet normal 0.406735 0.913546 -0
    outer loop
      vertex -0.463525 -1.42658 -5
      vertex -0.75 -1.29904 5
      vertex -0.463525 -1.42658 5
    endloop
  endfacet
  facet normal 0.406735 0.913546 0
    outer loop
      vertex -0.75 -1.29904 5
      vertex -0.463525 -1.42658 -5
      vertex -0.75 -1.29904 -5
    endloop
  endfacet
  facet normal 0.587787 0.809016 -0
    outer loop
      vertex -0.75 -1.29904 -5
      vertex -1.0037 -1.11472 5
      vertex -0.75 -1.29904 5
    endloop
  endfacet
  facet normal 0.587787 0.809016 0
    outer loop
      vertex -1.0037 -1.11472 5
      vertex -0.75 -1.29904 -5
      vertex -1.0037 -1.11472 -5
    endloop
  endfacet
endsolid OpenSCAD_Model
