solid OpenSCAD_Model
  facet normal 0 0 1
    outer loop
      vertex 27.5 72.75 1.5
      vertex 22.5 71.75 1.5
      vertex 27.5 59.25 1.5
    endloop
  endfacet
  facet normal -0 0 1
    outer loop
      vertex -1.25 72.75 1.5
      vertex 22.5 71.75 1.5
      vertex 27.5 72.75 1.5
    endloop
  endfacet
  facet normal 0 0 1
    outer loop
      vertex 22.5 71.75 1.5
      vertex -1.25 72.75 1.5
      vertex -1.25 71.75 1.5
    endloop
  endfacet
  facet normal 0 0 1
    outer loop
      vertex 27.5 59.25 1.5
      vertex 22.5 71.75 1.5
      vertex 22.5 59.25 1.5
    endloop
  endfacet
  facet normal 1 -0 0
    outer loop
      vertex 27.5 59.25 1.5
      vertex 27.5 72.75 -1.5
      vertex 27.5 72.75 1.5
    endloop
  endfacet
  facet normal 1 0 0
    outer loop
      vertex 27.5 72.75 -1.5
      vertex 27.5 59.25 1.5
      vertex 27.5 59.25 -1.5
    endloop
  endfacet
  facet normal 0 0 -1
    outer loop
      vertex 22.5 71.75 -1.5
      vertex 27.5 59.25 -1.5
      vertex 22.5 59.25 -1.5
    endloop
  endfacet
  facet normal 0 0 -1
    outer loop
      vertex 27.5 59.25 -1.5
      vertex 22.5 71.75 -1.5
      vertex 27.5 72.75 -1.5
    endloop
  endfacet
  facet normal 0 0 -1
    outer loop
      vertex -1.25 72.75 -1.5
      vertex 22.5 71.75 -1.5
      vertex -1.25 71.75 -1.5
    endloop
  endfacet
  facet normal 0 0 -1
    outer loop
      vertex 22.5 71.75 -1.5
      vertex -1.25 72.75 -1.5
      vertex 27.5 72.75 -1.5
    endloop
  endfacet
  facet normal 0 1 -0
    outer loop
      vertex 27.5 72.75 -1.5
      vertex -1.25 72.75 1.5
      vertex 27.5 72.75 1.5
    endloop
  endfacet
  facet normal 0 1 0
    outer loop
      vertex -1.25 72.75 1.5
      vertex 27.5 72.75 -1.5
      vertex -1.25 72.75 -1.5
    endloop
  endfacet
  facet normal -1 0 0
    outer loop
      vertex -1.25 71.75 -1.5
      vertex -1.25 72.75 1.5
      vertex -1.25 72.75 -1.5
    endloop
  endfacet
  facet normal -1 -0 0
    outer loop
      vertex -1.25 72.75 1.5
      vertex -1.25 71.75 -1.5
      vertex -1.25 71.75 1.5
    endloop
  endfacet
  facet normal 0 -1 0
    outer loop
      vertex -1.25 71.75 -1.5
      vertex 22.5 71.75 1.5
      vertex -1.25 71.75 1.5
    endloop
  endfacet
  facet normal 0 -1 -0
    outer loop
      vertex 22.5 71.75 1.5
      vertex -1.25 71.75 -1.5
      vertex 22.5 71.75 -1.5
    endloop
  endfacet
  facet normal -1 0 0
    outer loop
      vertex 22.5 59.25 -1.5
      vertex 22.5 71.75 1.5
      vertex 22.5 71.75 -1.5
    endloop
  endfacet
  facet normal -1 -0 0
    outer loop
      vertex 22.5 71.75 1.5
      vertex 22.5 59.25 -1.5
      vertex 22.5 59.25 1.5
    endloop
  endfacet
  facet normal 0 -1 0
    outer loop
      vertex 22.5 59.25 -1.5
      vertex 27.5 59.25 1.5
      vertex 22.5 59.25 1.5
    endloop
  endfacet
  facet normal 0 -1 -0
    outer loop
      vertex 27.5 59.25 1.5
      vertex 22.5 59.25 -1.5
      vertex 27.5 59.25 -1.5
    endloop
  endfacet
endsolid OpenSCAD_Model
