<?xml version='1.0' encoding='UTF-8' standalone='no'?>
<!-- Created with Fritzing (http://www.fritzing.org/) -->
<svg xmlns="http://www.w3.org/2000/svg" version="1.2" height="0.787402in" width="2.71654in" xmlns:svg="http://www.w3.org/2000/svg"  viewBox="0 0 195.591 56.6929" baseProfile="tiny" x="0in" y="0in">
 <g partID="57410">
  <g id="board" >
   <rect fill-opacity="0.5" id="boardoutline" height="56.1169" fill="none" width="195.015"  x="0.288" y="0.288" stroke="black" stroke-width="0.5"/>
  </g>
 </g>
 <g partID="496450">
  <g transform="translate(161.521,53.7395)">
   <g transform="matrix(-1,0,0,-1,0,0)">
    <g id="copper0" flipped="1">
     <g transform="matrix(-1, 0, 0, 1, 43.6535, 0)">
      <g>
       <g>
        <g gorn="0.5">
         <g id="copper0" gorn="0.5.0">
          <rect style="color:#000000;fill-rule:nonzero;marker:none;visibility:visible;display:inline;overflow:visible;enable-background:accumulate" fill-opacity="1" id="connector0pad" height="4.77474" fill="black" width="4.77474" x="0.280866" y="1.72287" gorn="0.5.0.0" stroke-width="0.144" stroke="none"/>
          <rect style="color:#000000;fill-rule:nonzero;marker:none;visibility:visible;display:inline;overflow:visible;enable-background:accumulate" fill-opacity="1" id="connector1pad" height="4.77474" fill="black" width="4.77474" x="38.6809" y="1.72287" gorn="0.5.0.1" stroke-width="0.144" stroke="none"/>
         </g>
        </g>
        <g gorn="0.5.0">
         <rect style="color:#000000;fill-rule:nonzero;marker:none;visibility:visible;display:inline;overflow:visible;enable-background:accumulate" fill-opacity="1" id="connector0pad" height="4.77474" fill="black" width="4.77474" x="0.280866" y="1.72287" gorn="0.5.0.0" stroke-width="0.144" stroke="none"/>
         <rect style="color:#000000;fill-rule:nonzero;marker:none;visibility:visible;display:inline;overflow:visible;enable-background:accumulate" fill-opacity="1" id="connector1pad" height="4.77474" fill="black" width="4.77474" x="38.6809" y="1.72287" gorn="0.5.0.1" stroke-width="0.144" stroke="none"/>
        </g>
       </g>
      </g>
     </g>
    </g>
   </g>
  </g>
 </g>
 <g partID="464180">
  <g transform="translate(133.109,-17.1677)">
   <g id="copper0" >
    <rect fill-opacity="1" id="connector0pad" height="14.1732" fill="black" width="14.1732"  x="1.6" y="1.6" stroke="none" stroke-width="0"/>
    <g id="connector0terminal" height="14.1732" fill="none" width="14.1732"  x="1.6" y="1.6" stroke="none" stroke-width="0"/>
   </g>
  </g>
 </g>
 <g partID="464170">
  <g transform="translate(133.109,56.5331)">
   <g id="copper0" >
    <rect fill-opacity="1" id="connector0pad" height="14.1732" fill="black" width="14.1732"  x="1.6" y="1.6" stroke="none" stroke-width="0"/>
    <g id="connector0terminal" height="14.1732" fill="none" width="14.1732"  x="1.6" y="1.6" stroke="none" stroke-width="0"/>
   </g>
  </g>
 </g>
 <g partID="464160">
  <g transform="translate(46.6526,56.5331)">
   <g id="copper0" >
    <rect fill-opacity="1" id="connector0pad" height="14.1732" fill="black" width="14.1732"  x="1.6" y="1.6" stroke="none" stroke-width="0"/>
    <g id="connector0terminal" height="14.1732" fill="none" width="14.1732"  x="1.6" y="1.6" stroke="none" stroke-width="0"/>
   </g>
  </g>
 </g>
 <g partID="464150">
  <g transform="translate(46.6526,-17.1677)">
   <g id="copper0" >
    <rect fill-opacity="1" id="connector0pad" height="14.1732" fill="black" width="14.1732"  x="1.6" y="1.6" stroke="none" stroke-width="0"/>
    <g id="connector0terminal" height="14.1732" fill="none" width="14.1732"  x="1.6" y="1.6" stroke="none" stroke-width="0"/>
   </g>
  </g>
 </g>
 <g partID="463980">
  <g transform="translate(179.78,10.7945)">
   <g transform="matrix(0,1,-1,0,0,0)">
    <g id="copper0" flipped="1">
     <g transform="matrix(-1, 0, 0, 1, 29.4803, 0)">
      <g>
       <g>
        <g>
         <rect id="connector1pad" height="13.0394" width="2.83465" fill="black" stroke-linecap="round" x="7.65355" y="13.0394" connectorname="1" stroke="none" stroke-width="0"/>
         <rect id="connector4pad" height="13.0394" width="2.83465" fill="black" stroke-linecap="round" x="18.9921" y="13.0394" connectorname="3" stroke="none" stroke-width="0"/>
         <rect id="connector0pad" height="9.6378" width="4.53544" fill="black" stroke-linecap="round" x="0" y="0" connectorname="NC1" stroke="none" stroke-width="0"/>
         <rect id="connector2pad" height="9.6378" width="4.53544" fill="black" stroke-linecap="round" x="24.9449" y="0" connectorname="NC2" stroke="none" stroke-width="0"/>
         <rect id="connector3pad" height="13.0394" width="2.83465" fill="black" stroke-linecap="round" x="13.3228" y="13.0394" connectorname="2" stroke="none" stroke-width="0"/>
         <g id="copper0"/>
        </g>
        <g/>
       </g>
      </g>
     </g>
    </g>
   </g>
  </g>
 </g>
 <g partID="463990">
  <g transform="translate(189.56,23.267)">
   <g transform="matrix(0,1,-1,0,0,0)">
    <g id="copper0" flipped="1">
     <g transform="matrix(-1, 0, 0, 1, 17.5748, 0)">
      <g>
       <g>
        <g>
         <rect id="connector0pad" height="7.65353" width="5.10235" fill="black" stroke-linecap="round" x="0" y="0" connectorname="1" stroke="none" stroke-width="0"/>
         <rect id="connector1pad" height="7.65353" width="5.10235" fill="black" stroke-linecap="round" x="12.4724" y="0" connectorname="2" stroke="none" stroke-width="0"/>
         <g id="copper0"/>
        </g>
        <g/>
       </g>
      </g>
     </g>
    </g>
   </g>
  </g>
 </g>
 <g partID="464000">
  <g transform="translate(183.04,52.0386)">
   <g transform="matrix(-1,0,0,-1,0,0)">
    <g id="copper0" flipped="1">
     <g transform="matrix(-1, 0, 0, 1, 17.5748, 0)">
      <g>
       <g>
        <g>
         <rect id="connector0pad" height="7.65353" width="5.10235" fill="black" stroke-linecap="round" x="0" y="0" connectorname="1" stroke="none" stroke-width="0"/>
         <rect id="connector1pad" height="7.65353" width="5.10235" fill="black" stroke-linecap="round" x="12.4724" y="0" connectorname="2" stroke="none" stroke-width="0"/>
         <g id="copper0"/>
        </g>
        <g/>
       </g>
      </g>
     </g>
    </g>
   </g>
  </g>
 </g>
 <g partID="464010">
  <g transform="translate(141.371,24.6843)">
   <g transform="matrix(0,1,-1,0,0,0)">
    <g id="copper0" flipped="1">
     <g transform="matrix(-1, 0, 0, 1, 17.5748, 0)">
      <g>
       <g>
        <g>
         <rect id="connector0pad" height="7.65353" width="5.10235" fill="black" stroke-linecap="round" x="0" y="0" connectorname="1" stroke="none" stroke-width="0"/>
         <rect id="connector1pad" height="7.65353" width="5.10235" fill="black" stroke-linecap="round" x="12.4724" y="0" connectorname="2" stroke="none" stroke-width="0"/>
         <g id="copper0"/>
        </g>
        <g/>
       </g>
      </g>
     </g>
    </g>
   </g>
  </g>
 </g>
 <g partID="464020">
  <g transform="translate(90.4842,24.9724)">
   <g transform="matrix(0,-1,1,0,0,0)">
    <g id="copper0" flipped="1">
     <g transform="matrix(-1, 0, 0, 1, 24.1036, 0)">
      <g>
       <g>
        <g>
         <rect id="connector0pad" height="8.50393" width="4.53544" fill="black" stroke-linecap="round" x="0.00453544" y="3.77461" connectorname="P$1" stroke="none" stroke-width="0"/>
         <rect id="connector1pad" height="8.50393" width="4.53544" fill="black" stroke-linecap="round" x="19.2801" y="3.77461" connectorname="P$2" stroke="none" stroke-width="0"/>
         <rect id="connector3pad" height="15.5905" width="2.83465" fill="black" stroke-linecap="round" x="7.65809" y="6.66595" connectorname="VCC" stroke="none" stroke-width="0"/>
         <rect id="connector2pad" height="15.5905" width="2.83465" fill="black" stroke-linecap="round" x="13.3274" y="6.66595" connectorname="GND" stroke="none" stroke-width="0"/>
         <g id="copper0"/>
        </g>
        <g/>
       </g>
      </g>
     </g>
    </g>
   </g>
  </g>
 </g>
 <g partID="464030">
  <g transform="translate(106.925,19.5775)">
   <g id="copper0" flipped="1">
    <g transform="matrix(-1, 0, 0, 1, 24.1036, 0)">
     <g>
      <g>
       <g>
        <rect id="connector0pad" height="8.50393" width="4.53544" fill="black" stroke-linecap="round" x="0.00453544" y="3.77461" connectorname="P$1" stroke="none" stroke-width="0"/>
        <rect id="connector1pad" height="8.50393" width="4.53544" fill="black" stroke-linecap="round" x="19.2801" y="3.77461" connectorname="P$2" stroke="none" stroke-width="0"/>
        <rect id="connector3pad" height="15.5905" width="2.83465" fill="black" stroke-linecap="round" x="7.65809" y="6.66595" connectorname="VCC" stroke="none" stroke-width="0"/>
        <rect id="connector2pad" height="15.5905" width="2.83465" fill="black" stroke-linecap="round" x="13.3274" y="6.66595" connectorname="GND" stroke="none" stroke-width="0"/>
        <g id="copper0"/>
       </g>
       <g/>
      </g>
     </g>
    </g>
   </g>
  </g>
 </g>
 <g partID="464040">
  <g transform="translate(143.638,36.3063)">
   <g transform="matrix(0,-1,1,0,0,0)">
    <g id="copper0" flipped="1">
     <g transform="matrix(-1, 0, 0, 1, 17.5748, 0)">
      <g>
       <g>
        <g>
         <rect id="connector0pad" height="7.65353" width="5.10235" fill="black" stroke-linecap="round" x="0" y="0" connectorname="1" stroke="none" stroke-width="0"/>
         <rect id="connector1pad" height="7.65353" width="5.10235" fill="black" stroke-linecap="round" x="12.4724" y="0" connectorname="2" stroke="none" stroke-width="0"/>
         <g id="copper0"/>
        </g>
        <g/>
       </g>
      </g>
     </g>
    </g>
   </g>
  </g>
 </g>
 <g partID="464050">
  <g transform="translate(29.5393,54.7362)">
   <g transform="matrix(0,-1,1,0,0,0)">
    <g id="copper0" flipped="1">
     <g transform="matrix(-1, 0, 0, 1, 24.1036, 0)">
      <g>
       <g>
        <g>
         <rect id="connector0pad" height="8.50393" width="4.53544" fill="black" stroke-linecap="round" x="0.00453544" y="3.77461" connectorname="P$1" stroke="none" stroke-width="0"/>
         <rect id="connector1pad" height="8.50393" width="4.53544" fill="black" stroke-linecap="round" x="19.2801" y="3.77461" connectorname="P$2" stroke="none" stroke-width="0"/>
         <rect id="connector3pad" height="15.5905" width="2.83465" fill="black" stroke-linecap="round" x="7.65809" y="6.66595" connectorname="VCC" stroke="none" stroke-width="0"/>
         <rect id="connector2pad" height="15.5905" width="2.83465" fill="black" stroke-linecap="round" x="13.3274" y="6.66595" connectorname="GND" stroke="none" stroke-width="0"/>
         <g id="copper0"/>
        </g>
        <g/>
       </g>
      </g>
     </g>
    </g>
   </g>
  </g>
 </g>
 <g partID="464060">
  <g transform="translate(23.7329,38.8575)">
   <g transform="matrix(0,1,-1,0,0,0)">
    <g id="copper0" flipped="1">
     <g transform="matrix(-1, 0, 0, 1, 17.5748, 0)">
      <g>
       <g>
        <g>
         <rect id="connector0pad" height="7.65353" width="5.10235" fill="black" stroke-linecap="round" x="0" y="0" connectorname="1" stroke="none" stroke-width="0"/>
         <rect id="connector1pad" height="7.65353" width="5.10235" fill="black" stroke-linecap="round" x="12.4724" y="0" connectorname="2" stroke="none" stroke-width="0"/>
         <g id="copper0"/>
        </g>
        <g/>
       </g>
      </g>
     </g>
    </g>
   </g>
  </g>
 </g>
 <g partID="464070">
  <g transform="translate(29.5393,26.3897)">
   <g transform="matrix(0,-1,1,0,0,0)">
    <g id="copper0" flipped="1">
     <g transform="matrix(-1, 0, 0, 1, 24.1036, 0)">
      <g>
       <g>
        <g>
         <rect id="connector0pad" height="8.50393" width="4.53544" fill="black" stroke-linecap="round" x="0.00453544" y="3.77461" connectorname="P$1" stroke="none" stroke-width="0"/>
         <rect id="connector1pad" height="8.50393" width="4.53544" fill="black" stroke-linecap="round" x="19.2801" y="3.77461" connectorname="P$2" stroke="none" stroke-width="0"/>
         <rect id="connector3pad" height="15.5905" width="2.83465" fill="black" stroke-linecap="round" x="7.65809" y="6.66595" connectorname="VCC" stroke="none" stroke-width="0"/>
         <rect id="connector2pad" height="15.5905" width="2.83465" fill="black" stroke-linecap="round" x="13.3274" y="6.66595" connectorname="GND" stroke="none" stroke-width="0"/>
         <g id="copper0"/>
        </g>
        <g/>
       </g>
      </g>
     </g>
    </g>
   </g>
  </g>
 </g>
 <g partID="464080">
  <g transform="translate(4.87791,-0.265102)">
   <g id="copper0" flipped="1">
    <g transform="matrix(-1, 0, 0, 1, 24.1036, 0)">
     <g>
      <g>
       <g>
        <rect id="connector0pad" height="8.50393" width="4.53544" fill="black" stroke-linecap="round" x="0.00453544" y="3.77461" connectorname="P$1" stroke="none" stroke-width="0"/>
        <rect id="connector1pad" height="8.50393" width="4.53544" fill="black" stroke-linecap="round" x="19.2801" y="3.77461" connectorname="P$2" stroke="none" stroke-width="0"/>
        <rect id="connector3pad" height="15.5905" width="2.83465" fill="black" stroke-linecap="round" x="7.65809" y="6.66595" connectorname="VCC" stroke="none" stroke-width="0"/>
        <rect id="connector2pad" height="15.5905" width="2.83465" fill="black" stroke-linecap="round" x="13.3274" y="6.66595" connectorname="GND" stroke="none" stroke-width="0"/>
        <g id="copper0"/>
       </g>
       <g/>
      </g>
     </g>
    </g>
   </g>
  </g>
 </g>
 <g partID="464090">
  <g transform="translate(22.1738,32.1961)">
   <g transform="matrix(-1,0,0,-1,0,0)">
    <g id="copper0" flipped="1">
     <g transform="matrix(-1, 0, 0, 1, 17.5748, 0)">
      <g>
       <g>
        <g>
         <rect id="connector0pad" height="7.65353" width="5.10235" fill="black" stroke-linecap="round" x="0" y="0" connectorname="1" stroke="none" stroke-width="0"/>
         <rect id="connector1pad" height="7.65353" width="5.10235" fill="black" stroke-linecap="round" x="12.4724" y="0" connectorname="2" stroke="none" stroke-width="0"/>
         <g id="copper0"/>
        </g>
        <g/>
       </g>
      </g>
     </g>
    </g>
   </g>
  </g>
 </g>
 <g partID="464100">
  <g transform="translate(12.3942,37.4403)">
   <g transform="matrix(0,1,-1,0,0,0)">
    <g id="copper0" flipped="1">
     <g transform="matrix(-1, 0, 0, 1, 17.5748, 0)">
      <g>
       <g>
        <g>
         <rect id="connector0pad" height="7.65353" width="5.10235" fill="black" stroke-linecap="round" x="0" y="0" connectorname="1" stroke="none" stroke-width="0"/>
         <rect id="connector1pad" height="7.65353" width="5.10235" fill="black" stroke-linecap="round" x="12.4724" y="0" connectorname="2" stroke="none" stroke-width="0"/>
         <g id="copper0"/>
        </g>
        <g/>
       </g>
      </g>
     </g>
    </g>
   </g>
  </g>
 </g>
 <g partID="464110">
  <g transform="translate(63.5551,24.9724)">
   <g transform="matrix(0,-1,1,0,0,0)">
    <g id="copper0" flipped="1">
     <g transform="matrix(-1, 0, 0, 1, 24.1036, 0)">
      <g>
       <g>
        <g>
         <rect id="connector0pad" height="8.50393" width="4.53544" fill="black" stroke-linecap="round" x="0.00453544" y="3.77461" connectorname="P$1" stroke="none" stroke-width="0"/>
         <rect id="connector1pad" height="8.50393" width="4.53544" fill="black" stroke-linecap="round" x="19.2801" y="3.77461" connectorname="P$2" stroke="none" stroke-width="0"/>
         <rect id="connector3pad" height="15.5905" width="2.83465" fill="black" stroke-linecap="round" x="7.65809" y="6.66595" connectorname="VCC" stroke="none" stroke-width="0"/>
         <rect id="connector2pad" height="15.5905" width="2.83465" fill="black" stroke-linecap="round" x="13.3274" y="6.66595" connectorname="GND" stroke="none" stroke-width="0"/>
         <g id="copper0"/>
        </g>
        <g/>
       </g>
      </g>
     </g>
    </g>
   </g>
  </g>
 </g>
 <g partID="464120">
  <g transform="translate(65.1351,33.4717)">
   <g transform="matrix(0,1,-1,0,0,0)">
    <g id="copper0" flipped="1">
     <g transform="matrix(-1, 0, 0, 1, 19.2756, 0)">
      <g>
       <g>
        <g>
         <rect id="connector1pad" height="6.80315" width="6.80316" fill="black" stroke-linecap="round" x="0" y="2.14243" connectorname="C" stroke="none" stroke-width="0"/>
         <rect id="connector0pad" height="6.80315" width="6.80316" fill="black" stroke-linecap="round" x="12.4725" y="2.14243" connectorname="A" stroke="none" stroke-width="0"/>
         <g id="copper0"/>
        </g>
        <g/>
       </g>
      </g>
     </g>
    </g>
   </g>
  </g>
 </g>
 <g partID="464130">
  <g transform="translate(67.6698,51.6135)">
   <g transform="matrix(0,-1,1,0,0,0)">
    <g id="copper0" flipped="1">
     <g transform="matrix(-1, 0, 0, 1, 20.9764, 0)">
      <g>
       <g>
        <g>
         <rect style="fill-rule:nonzero;" fill-opacity="1" height="19.8425" id="connector1pad" width="19.8425" fill="black" x="0.566929" y="0.566928" stroke-width="0" stroke="none"/>
         <rect style="fill-rule:nonzero;" fill-opacity="1" height="7.65354" id="connector2pad" width="4.25197" fill="black" x="15.4488" y="26.3622" stroke-width="0" stroke="none"/>
         <rect style="fill-rule:nonzero;" fill-opacity="1" height="7.65354" id="connector0pad" width="4.25197" fill="black" x="1.27559" y="26.3622" stroke-width="0" stroke="none"/>
        </g>
       </g>
      </g>
     </g>
    </g>
   </g>
  </g>
 </g>
 <g partID="495590">
  <line y1="49.6073" y2="49.6222" x1="112.01" x2="117.826" stroke-linecap="round" stroke="black" stroke-width="1.728"/>
 </g>
 <g partID="495480">
  <line y1="41.085" y2="49.6073" x1="109.169" x2="112.01" stroke-linecap="round" stroke="black" stroke-width="1.728"/>
 </g>
 <g partID="495700">
  <line y1="48.5476" y2="49.2113" x1="165.865" x2="161.613" stroke-linecap="round" stroke="black" stroke-width="1.728"/>
 </g>
 <g partID="468740">
  <line y1="46.7429" y2="50.3127" x1="1.46576" x2="5.89711" stroke-linecap="round" stroke="black" stroke-width="3.456"/>
 </g>
 <g partID="469040">
  <line y1="19.8629" y2="46.7429" x1="1.46576" x2="1.46576" stroke-linecap="round" stroke="black" stroke-width="3.456"/>
 </g>
 <g partID="468750">
  <line y1="14.6475" y2="19.8629" x1="13.2195" x2="1.46576" stroke-linecap="round" stroke="black" stroke-width="3.456"/>
 </g>
 <g partID="469350">
  <line y1="37.8403" y2="31.7961" x1="8.30518" x2="7.56809" stroke-linecap="round" stroke="black" stroke-width="1.728"/>
 </g>
 <g partID="469440">
  <line y1="21.5914" y2="24.9426" x1="19.7582" x2="19.6911" stroke-linecap="round" stroke="black" stroke-width="3.456"/>
 </g>
 <g partID="469920">
  <line y1="14.1563" y2="18.4229" x1="31.2258" x2="22.6924" stroke-linecap="round" stroke="black" stroke-width="3.456"/>
 </g>
 <g partID="469790">
  <line y1="11.3562" y2="14.1563" x1="36.1591" x2="31.2258" stroke-linecap="round" stroke="black" stroke-width="3.456"/>
 </g>
 <g partID="469680">
  <line y1="18.4229" y2="24.9426" x1="22.6924" x2="20.6802" stroke-linecap="round" stroke="black" stroke-width="3.456"/>
 </g>
 <g partID="469570">
  <line y1="11.3565" y2="11.3562" x1="36.6053" x2="36.1591" stroke-linecap="round" stroke="black" stroke-width="3.456"/>
 </g>
 <g partID="478130">
  <line y1="18.4229" y2="17.9391" x1="32.6658" x2="36.6053" stroke-linecap="round" stroke="black" stroke-width="1.728"/>
 </g>
 <g partID="474940">
  <line y1="35.3829" y2="35.3829" x1="9.94576" x2="25.6258" stroke-linecap="round" stroke="black" stroke-width="1.728"/>
 </g>
 <g partID="470170">
  <line y1="35.3829" y2="24.1829" x1="25.6258" x2="25.6258" stroke-linecap="round" stroke="black" stroke-width="1.728"/>
 </g>
 <g partID="470100">
  <line y1="24.1829" y2="18.4229" x1="25.6258" x2="32.6658" stroke-linecap="round" stroke="black" stroke-width="1.728"/>
 </g>
 <g partID="470030">
  <line y1="31.7961" y2="35.383" x1="8.51604" x2="9.94574" stroke-linecap="round" stroke="black" stroke-width="1.728"/>
 </g>
 <g partID="470240">
  <line y1="52.8922" y2="53.4528" x1="11.9942" x2="16.4794" stroke-linecap="round" stroke="black" stroke-width="3.456"/>
 </g>
 <g partID="475060">
  <line y1="31.2229" y2="31.2229" x1="45.4658" x2="29.7858" stroke-linecap="round" stroke="black" stroke-width="1.728"/>
 </g>
 <g partID="475010">
  <line y1="41.1429" y2="41.3165" x1="29.7858" x2="23.3329" stroke-linecap="round" stroke="black" stroke-width="1.728"/>
 </g>
 <g partID="470530">
  <line y1="31.2229" y2="41.1429" x1="29.7858" x2="29.7858" stroke-linecap="round" stroke="black" stroke-width="1.728"/>
 </g>
 <g partID="470480">
  <line y1="17.0895" y2="31.2229" x1="59.6258" x2="45.4658" stroke-linecap="round" stroke="black" stroke-width="1.728"/>
 </g>
 <g partID="470430">
  <line y1="16.207" y2="17.0896" x1="70.621" x2="59.6258" stroke-linecap="round" stroke="black" stroke-width="1.728"/>
 </g>
 <g partID="470580">
  <line y1="11.0533" y2="10.2523" x1="51.3958" x2="70.621" stroke-linecap="round" stroke="black" stroke-width="3.456"/>
 </g>
 <g partID="494200">
  <line y1="53.9429" y2="53.8927" x1="38.2658" x2="23.3329" stroke-linecap="round" stroke="black" stroke-width="3.456"/>
 </g>
 <g partID="470670">
  <line y1="46.3946" y2="53.9429" x1="43.3194" x2="38.2658" stroke-linecap="round" stroke="black" stroke-width="3.456"/>
 </g>
 <g partID="477680">
  <line y1="45.3029" y2="39.5688" x1="52.5058" x2="57.3254" stroke-linecap="round" stroke="black" stroke-width="3.456"/>
 </g>
 <g partID="471060">
  <line y1="45.3126" y2="45.3029" x1="51.3958" x2="52.5058" stroke-linecap="round" stroke="black" stroke-width="3.456"/>
 </g>
 <g partID="478700">
  <line y1="28.3429" y2="32.3126" x1="97.7858" x2="97.8367" stroke-linecap="round" stroke="black" stroke-width="3.456"/>
 </g>
 <g partID="478570">
  <line y1="27.6673" y2="28.3429" x1="65.2702" x2="97.7858" stroke-linecap="round" stroke="black" stroke-width="3.456"/>
 </g>
 <g partID="478440">
  <line y1="33.1955" y2="27.6673" x1="61.8599" x2="65.2702" stroke-linecap="round" stroke="black" stroke-width="3.456"/>
 </g>
 <g partID="479010">
  <line y1="53.9429" y2="53.9429" x1="97.7858" x2="59.5458" stroke-linecap="round" stroke="black" stroke-width="3.456"/>
 </g>
 <g partID="478920">
  <line y1="53.9429" y2="52.8668" x1="59.5458" x2="59.5564" stroke-linecap="round" stroke="black" stroke-width="3.456"/>
 </g>
 <g partID="478830">
  <line y1="49.9378" y2="53.9429" x1="97.8368" x2="97.7857" stroke-linecap="round" stroke="black" stroke-width="3.456"/>
 </g>
 <g partID="494400">
  <line y1="9.94289" y2="15.5429" x1="119.066" x2="116.346" stroke-linecap="round" stroke="black" stroke-width="3.456"/>
 </g>
 <g partID="494330">
  <line y1="15.5429" y2="15.5677" x1="116.346" x2="112.341" stroke-linecap="round" stroke="black" stroke-width="3.456"/>
 </g>
 <g partID="491060">
  <line y1="1.46289" y2="9.94289" x1="151.706" x2="119.066" stroke-linecap="round" stroke="black" stroke-width="3.456"/>
 </g>
 <g partID="484620">
  <line y1="55.2229" y2="55.2229" x1="99.2258" x2="194.266" stroke-linecap="round" stroke="black" stroke-width="3.456"/>
 </g>
 <g partID="482710">
  <line y1="55.2229" y2="1.46289" x1="194.266" x2="194.266" stroke-linecap="round" stroke="black" stroke-width="3.456"/>
 </g>
 <g partID="482640">
  <line y1="1.46289" y2="1.46289" x1="194.266" x2="151.706" stroke-linecap="round" stroke="black" stroke-width="3.456"/>
 </g>
 <g partID="482570">
  <line y1="49.9378" y2="55.2229" x1="98.1953" x2="99.2257" stroke-linecap="round" stroke="black" stroke-width="3.456"/>
 </g>
 <g partID="484270">
  <line y1="41.085" y2="35.0462" x1="109.169" x2="115.267" stroke-linecap="round" stroke="black" stroke-width="1.728"/>
 </g>
 <g partID="484160">
  <line y1="41.1139" y2="41.085" x1="86.895" x2="109.169" stroke-linecap="round" stroke="black" stroke-width="1.728"/>
 </g>
 <g partID="493480">
  <line y1="44.0229" y2="44.0229" x1="128.986" x2="117.626" stroke-linecap="round" stroke="black" stroke-width="1.728"/>
 </g>
 <g partID="487920">
  <line y1="44.0229" y2="44.0229" x1="137.466" x2="128.986" stroke-linecap="round" stroke="black" stroke-width="1.728"/>
 </g>
 <g partID="487830">
  <line y1="44.0229" y2="41.4339" x1="117.626" x2="117.278" stroke-linecap="round" stroke="black" stroke-width="1.728"/>
 </g>
 <g partID="487740">
  <line y1="41.8591" y2="44.0229" x1="137.505" x2="137.466" stroke-linecap="round" stroke="black" stroke-width="1.728"/>
 </g>
 <g partID="489370">
  <line y1="34.0273" y2="33.7932" x1="122.971" x2="144.038" stroke-linecap="round" stroke="black" stroke-width="1.728"/>
 </g>
 <g partID="489640">
  <line y1="23.3387" y2="25.1793" x1="144.038" x2="140.971" stroke-linecap="round" stroke="black" stroke-width="1.728"/>
 </g>
 <g partID="489730">
  <line y1="20.902" y2="20.5453" x1="150.892" x2="154.102" stroke-linecap="round" stroke="black" stroke-width="1.728"/>
 </g>
 <g partID="490050">
  <line y1="26.9029" y2="31.604" x1="148.826" x2="147.892" stroke-linecap="round" stroke="black" stroke-width="1.728"/>
 </g>
 <g partID="489800">
  <line y1="26.2694" y2="26.9029" x1="154.102" x2="148.826" stroke-linecap="round" stroke="black" stroke-width="1.728"/>
 </g>
 <g partID="497300">
  <line y1="42.5229" y2="45.5874" x1="175.826" x2="178.338" stroke-linecap="round" stroke="black" stroke-width="1.728"/>
 </g>
 <g partID="490440">
  <line y1="41.8229" y2="42.5229" x1="160.226" x2="175.826" stroke-linecap="round" stroke="black" stroke-width="1.728"/>
 </g>
 <g partID="490350">
  <line y1="32.2213" y2="41.8229" x1="160.222" x2="160.226" stroke-linecap="round" stroke="black" stroke-width="1.728"/>
 </g>
 <g partID="490530">
  <line y1="44.7851" y2="40.4418" x1="182.3" x2="184.596" stroke-linecap="round" stroke="black" stroke-width="1.728"/>
 </g>
 <g partID="490830">
  <line y1="25.4629" y2="25.6049" x1="180.026" x2="182.306" stroke-linecap="round" stroke="black" stroke-width="1.728"/>
 </g>
 <g partID="490600">
  <line y1="25.5125" y2="25.4629" x1="166.341" x2="180.026" stroke-linecap="round" stroke="black" stroke-width="1.728"/>
 </g>
 <g partID="491350">
  <line y1="9.94417" y2="9.94417" x1="85.4116" x2="97.5501" stroke-linecap="round" stroke="black" stroke-width="3.456"/>
 </g>
 <g partID="492390">
  <line y1="9.94292" y2="20.3429" x1="92.1858" x2="91.5458" stroke-linecap="round" stroke="black" stroke-width="3.456"/>
 </g>
 <g partID="492120">
  <line y1="20.3429" y2="21.3287" x1="91.5458" x2="121.953" stroke-linecap="round" stroke="black" stroke-width="3.456"/>
 </g>
 <g partID="491870">
  <line y1="21.3287" y2="26.6434" x1="121.953" x2="121.953" stroke-linecap="round" stroke="black" stroke-width="3.456"/>
 </g>
 <g partID="491620">
  <line y1="9.94352" y2="9.94292" x1="85.4116" x2="92.1858" stroke-linecap="round" stroke="black" stroke-width="3.456"/>
 </g>
 <g partID="493100">
  <line y1="21.3029" y2="29.7829" x1="62.4258" x2="53.9458" stroke-linecap="round" stroke="black" stroke-width="3.456"/>
 </g>
 <g partID="492870">
  <line y1="29.7829" y2="38.6907" x1="53.9458" x2="45.0199" stroke-linecap="round" stroke="black" stroke-width="3.456"/>
 </g>
 <g partID="492640">
  <line y1="20.3429" y2="21.3029" x1="91.5458" x2="62.4258" stroke-linecap="round" stroke="black" stroke-width="3.456"/>
 </g>
</svg>
