<?xml version='1.0' encoding='UTF-8' standalone='no'?>
<!-- Created with Fritzing (http://www.fritzing.org/) -->
<svg xmlns="http://www.w3.org/2000/svg" version="1.2" height="0.787402in" width="2.71654in" xmlns:svg="http://www.w3.org/2000/svg"  viewBox="0 0 195.591 56.6929" baseProfile="tiny" x="0in" y="0in">
 <g partID="57410">
  <g id="board" >
   <rect fill-opacity="0.5" id="boardoutline" height="56.1169" fill="none" width="195.015"  x="0.288" y="0.288" stroke="black" stroke-width="0.5"/>
  </g>
 </g>
 <g partID="496450">
  <g transform="translate(161.521,53.7395)">
   <g transform="matrix(-1,0,0,-1,0,0)">
    <g id="copper0" flipped="1">
     <g transform="matrix(-1, 0, 0, 1, 43.6535, 0)">
      <g>
       <g>
        <g gorn="0.5">
         <g id="copper0" gorn="0.5.0">
          <rect style="color:#000000;fill-rule:nonzero;marker:none;visibility:visible;display:inline;overflow:visible;enable-background:accumulate" fill-opacity="1" id="connector0pad" height="4.77474" fill="black" width="4.77474" x="0.280866" y="1.72287" gorn="0.5.0.0" stroke-width="0.864" stroke="black"/>
          <rect style="color:#000000;fill-rule:nonzero;marker:none;visibility:visible;display:inline;overflow:visible;enable-background:accumulate" fill-opacity="1" id="connector1pad" height="4.77474" fill="black" width="4.77474" x="38.6809" y="1.72287" gorn="0.5.0.1" stroke-width="0.864" stroke="black"/>
         </g>
        </g>
        <g gorn="0.5.0">
         <rect style="color:#000000;fill-rule:nonzero;marker:none;visibility:visible;display:inline;overflow:visible;enable-background:accumulate" fill-opacity="1" id="connector0pad" height="4.77474" fill="black" width="4.77474" x="0.280866" y="1.72287" gorn="0.5.0.0" stroke-width="0.864" stroke="black"/>
         <rect style="color:#000000;fill-rule:nonzero;marker:none;visibility:visible;display:inline;overflow:visible;enable-background:accumulate" fill-opacity="1" id="connector1pad" height="4.77474" fill="black" width="4.77474" x="38.6809" y="1.72287" gorn="0.5.0.1" stroke-width="0.864" stroke="black"/>
        </g>
       </g>
      </g>
     </g>
    </g>
   </g>
  </g>
 </g>
 <g partID="464180">
  <g transform="translate(133.109,-17.1677)">
   <g id="copper0" >
    <rect fill-opacity="1" id="connector0pad" height="14.1732" fill="black" width="14.1732"  x="1.6" y="1.6" stroke="black" stroke-width="0.72"/>
    <g id="connector0terminal" height="14.1732" fill="black" width="14.1732"  x="1.6" y="1.6" stroke="black" stroke-width="0.72"/>
   </g>
  </g>
 </g>
 <g partID="464170">
  <g transform="translate(133.109,56.5331)">
   <g id="copper0" >
    <rect fill-opacity="1" id="connector0pad" height="14.1732" fill="black" width="14.1732"  x="1.6" y="1.6" stroke="black" stroke-width="0.72"/>
    <g id="connector0terminal" height="14.1732" fill="black" width="14.1732"  x="1.6" y="1.6" stroke="black" stroke-width="0.72"/>
   </g>
  </g>
 </g>
 <g partID="464160">
  <g transform="translate(46.6526,56.5331)">
   <g id="copper0" >
    <rect fill-opacity="1" id="connector0pad" height="14.1732" fill="black" width="14.1732"  x="1.6" y="1.6" stroke="black" stroke-width="0.72"/>
    <g id="connector0terminal" height="14.1732" fill="black" width="14.1732"  x="1.6" y="1.6" stroke="black" stroke-width="0.72"/>
   </g>
  </g>
 </g>
 <g partID="464150">
  <g transform="translate(46.6526,-17.1677)">
   <g id="copper0" >
    <rect fill-opacity="1" id="connector0pad" height="14.1732" fill="black" width="14.1732"  x="1.6" y="1.6" stroke="black" stroke-width="0.72"/>
    <g id="connector0terminal" height="14.1732" fill="black" width="14.1732"  x="1.6" y="1.6" stroke="black" stroke-width="0.72"/>
   </g>
  </g>
 </g>
 <g partID="463980">
  <g transform="translate(179.78,10.7945)">
   <g transform="matrix(0,1,-1,0,0,0)">
    <g id="copper0" flipped="1">
     <g transform="matrix(-1, 0, 0, 1, 29.4803, 0)">
      <g>
       <g>
        <g>
         <rect id="connector1pad" height="13.0394" width="2.83465" fill="black" stroke-linecap="round" x="7.65355" y="13.0394" connectorname="1" stroke="black" stroke-width="0.72"/>
         <rect id="connector4pad" height="13.0394" width="2.83465" fill="black" stroke-linecap="round" x="18.9921" y="13.0394" connectorname="3" stroke="black" stroke-width="0.72"/>
         <rect id="connector0pad" height="9.6378" width="4.53544" fill="black" stroke-linecap="round" x="0" y="0" connectorname="NC1" stroke="black" stroke-width="0.72"/>
         <rect id="connector2pad" height="9.6378" width="4.53544" fill="black" stroke-linecap="round" x="24.9449" y="0" connectorname="NC2" stroke="black" stroke-width="0.72"/>
         <rect id="connector3pad" height="13.0394" width="2.83465" fill="black" stroke-linecap="round" x="13.3228" y="13.0394" connectorname="2" stroke="black" stroke-width="0.72"/>
         <g id="copper0"/>
        </g>
        <g/>
       </g>
      </g>
     </g>
    </g>
   </g>
  </g>
 </g>
 <g partID="463990">
  <g transform="translate(189.56,23.267)">
   <g transform="matrix(0,1,-1,0,0,0)">
    <g id="copper0" flipped="1">
     <g transform="matrix(-1, 0, 0, 1, 17.5748, 0)">
      <g>
       <g>
        <g>
         <rect id="connector0pad" height="7.65353" width="5.10235" fill="black" stroke-linecap="round" x="0" y="0" connectorname="1" stroke="black" stroke-width="0.72"/>
         <rect id="connector1pad" height="7.65353" width="5.10235" fill="black" stroke-linecap="round" x="12.4724" y="0" connectorname="2" stroke="black" stroke-width="0.72"/>
         <g id="copper0"/>
        </g>
        <g/>
       </g>
      </g>
     </g>
    </g>
   </g>
  </g>
 </g>
 <g partID="464000">
  <g transform="translate(183.04,52.0386)">
   <g transform="matrix(-1,0,0,-1,0,0)">
    <g id="copper0" flipped="1">
     <g transform="matrix(-1, 0, 0, 1, 17.5748, 0)">
      <g>
       <g>
        <g>
         <rect id="connector0pad" height="7.65353" width="5.10235" fill="black" stroke-linecap="round" x="0" y="0" connectorname="1" stroke="black" stroke-width="0.72"/>
         <rect id="connector1pad" height="7.65353" width="5.10235" fill="black" stroke-linecap="round" x="12.4724" y="0" connectorname="2" stroke="black" stroke-width="0.72"/>
         <g id="copper0"/>
        </g>
        <g/>
       </g>
      </g>
     </g>
    </g>
   </g>
  </g>
 </g>
 <g partID="464010">
  <g transform="translate(141.371,24.6843)">
   <g transform="matrix(0,1,-1,0,0,0)">
    <g id="copper0" flipped="1">
     <g transform="matrix(-1, 0, 0, 1, 17.5748, 0)">
      <g>
       <g>
        <g>
         <rect id="connector0pad" height="7.65353" width="5.10235" fill="black" stroke-linecap="round" x="0" y="0" connectorname="1" stroke="black" stroke-width="0.72"/>
         <rect id="connector1pad" height="7.65353" width="5.10235" fill="black" stroke-linecap="round" x="12.4724" y="0" connectorname="2" stroke="black" stroke-width="0.72"/>
         <g id="copper0"/>
        </g>
        <g/>
       </g>
      </g>
     </g>
    </g>
   </g>
  </g>
 </g>
 <g partID="464020">
  <g transform="translate(90.4842,24.9724)">
   <g transform="matrix(0,-1,1,0,0,0)">
    <g id="copper0" flipped="1">
     <g transform="matrix(-1, 0, 0, 1, 24.1036, 0)">
      <g>
       <g>
        <g>
         <rect id="connector0pad" height="8.50393" width="4.53544" fill="black" stroke-linecap="round" x="0.00453544" y="3.77461" connectorname="P$1" stroke="black" stroke-width="0.72"/>
         <rect id="connector1pad" height="8.50393" width="4.53544" fill="black" stroke-linecap="round" x="19.2801" y="3.77461" connectorname="P$2" stroke="black" stroke-width="0.72"/>
         <rect id="connector3pad" height="15.5905" width="2.83465" fill="black" stroke-linecap="round" x="7.65809" y="6.66595" connectorname="VCC" stroke="black" stroke-width="0.72"/>
         <rect id="connector2pad" height="15.5905" width="2.83465" fill="black" stroke-linecap="round" x="13.3274" y="6.66595" connectorname="GND" stroke="black" stroke-width="0.72"/>
         <g id="copper0"/>
        </g>
        <g/>
       </g>
      </g>
     </g>
    </g>
   </g>
  </g>
 </g>
 <g partID="464030">
  <g transform="translate(106.925,19.5775)">
   <g id="copper0" flipped="1">
    <g transform="matrix(-1, 0, 0, 1, 24.1036, 0)">
     <g>
      <g>
       <g>
        <rect id="connector0pad" height="8.50393" width="4.53544" fill="black" stroke-linecap="round" x="0.00453544" y="3.77461" connectorname="P$1" stroke="black" stroke-width="0.72"/>
        <rect id="connector1pad" height="8.50393" width="4.53544" fill="black" stroke-linecap="round" x="19.2801" y="3.77461" connectorname="P$2" stroke="black" stroke-width="0.72"/>
        <rect id="connector3pad" height="15.5905" width="2.83465" fill="black" stroke-linecap="round" x="7.65809" y="6.66595" connectorname="VCC" stroke="black" stroke-width="0.72"/>
        <rect id="connector2pad" height="15.5905" width="2.83465" fill="black" stroke-linecap="round" x="13.3274" y="6.66595" connectorname="GND" stroke="black" stroke-width="0.72"/>
        <g id="copper0"/>
       </g>
       <g/>
      </g>
     </g>
    </g>
   </g>
  </g>
 </g>
 <g partID="464040">
  <g transform="translate(143.638,36.3063)">
   <g transform="matrix(0,-1,1,0,0,0)">
    <g id="copper0" flipped="1">
     <g transform="matrix(-1, 0, 0, 1, 17.5748, 0)">
      <g>
       <g>
        <g>
         <rect id="connector0pad" height="7.65353" width="5.10235" fill="black" stroke-linecap="round" x="0" y="0" connectorname="1" stroke="black" stroke-width="0.72"/>
         <rect id="connector1pad" height="7.65353" width="5.10235" fill="black" stroke-linecap="round" x="12.4724" y="0" connectorname="2" stroke="black" stroke-width="0.72"/>
         <g id="copper0"/>
        </g>
        <g/>
       </g>
      </g>
     </g>
    </g>
   </g>
  </g>
 </g>
 <g partID="464050">
  <g transform="translate(29.5393,54.7362)">
   <g transform="matrix(0,-1,1,0,0,0)">
    <g id="copper0" flipped="1">
     <g transform="matrix(-1, 0, 0, 1, 24.1036, 0)">
      <g>
       <g>
        <g>
         <rect id="connector0pad" height="8.50393" width="4.53544" fill="black" stroke-linecap="round" x="0.00453544" y="3.77461" connectorname="P$1" stroke="black" stroke-width="0.72"/>
         <rect id="connector1pad" height="8.50393" width="4.53544" fill="black" stroke-linecap="round" x="19.2801" y="3.77461" connectorname="P$2" stroke="black" stroke-width="0.72"/>
         <rect id="connector3pad" height="15.5905" width="2.83465" fill="black" stroke-linecap="round" x="7.65809" y="6.66595" connectorname="VCC" stroke="black" stroke-width="0.72"/>
         <rect id="connector2pad" height="15.5905" width="2.83465" fill="black" stroke-linecap="round" x="13.3274" y="6.66595" connectorname="GND" stroke="black" stroke-width="0.72"/>
         <g id="copper0"/>
        </g>
        <g/>
       </g>
      </g>
     </g>
    </g>
   </g>
  </g>
 </g>
 <g partID="464060">
  <g transform="translate(23.7329,38.8575)">
   <g transform="matrix(0,1,-1,0,0,0)">
    <g id="copper0" flipped="1">
     <g transform="matrix(-1, 0, 0, 1, 17.5748, 0)">
      <g>
       <g>
        <g>
         <rect id="connector0pad" height="7.65353" width="5.10235" fill="black" stroke-linecap="round" x="0" y="0" connectorname="1" stroke="black" stroke-width="0.72"/>
         <rect id="connector1pad" height="7.65353" width="5.10235" fill="black" stroke-linecap="round" x="12.4724" y="0" connectorname="2" stroke="black" stroke-width="0.72"/>
         <g id="copper0"/>
        </g>
        <g/>
       </g>
      </g>
     </g>
    </g>
   </g>
  </g>
 </g>
 <g partID="464070">
  <g transform="translate(29.5393,26.3897)">
   <g transform="matrix(0,-1,1,0,0,0)">
    <g id="copper0" flipped="1">
     <g transform="matrix(-1, 0, 0, 1, 24.1036, 0)">
      <g>
       <g>
        <g>
         <rect id="connector0pad" height="8.50393" width="4.53544" fill="black" stroke-linecap="round" x="0.00453544" y="3.77461" connectorname="P$1" stroke="black" stroke-width="0.72"/>
         <rect id="connector1pad" height="8.50393" width="4.53544" fill="black" stroke-linecap="round" x="19.2801" y="3.77461" connectorname="P$2" stroke="black" stroke-width="0.72"/>
         <rect id="connector3pad" height="15.5905" width="2.83465" fill="black" stroke-linecap="round" x="7.65809" y="6.66595" connectorname="VCC" stroke="black" stroke-width="0.72"/>
         <rect id="connector2pad" height="15.5905" width="2.83465" fill="black" stroke-linecap="round" x="13.3274" y="6.66595" connectorname="GND" stroke="black" stroke-width="0.72"/>
         <g id="copper0"/>
        </g>
        <g/>
       </g>
      </g>
     </g>
    </g>
   </g>
  </g>
 </g>
 <g partID="464080">
  <g transform="translate(4.87791,-0.265102)">
   <g id="copper0" flipped="1">
    <g transform="matrix(-1, 0, 0, 1, 24.1036, 0)">
     <g>
      <g>
       <g>
        <rect id="connector0pad" height="8.50393" width="4.53544" fill="black" stroke-linecap="round" x="0.00453544" y="3.77461" connectorname="P$1" stroke="black" stroke-width="0.72"/>
        <rect id="connector1pad" height="8.50393" width="4.53544" fill="black" stroke-linecap="round" x="19.2801" y="3.77461" connectorname="P$2" stroke="black" stroke-width="0.72"/>
        <rect id="connector3pad" height="15.5905" width="2.83465" fill="black" stroke-linecap="round" x="7.65809" y="6.66595" connectorname="VCC" stroke="black" stroke-width="0.72"/>
        <rect id="connector2pad" height="15.5905" width="2.83465" fill="black" stroke-linecap="round" x="13.3274" y="6.66595" connectorname="GND" stroke="black" stroke-width="0.72"/>
        <g id="copper0"/>
       </g>
       <g/>
      </g>
     </g>
    </g>
   </g>
  </g>
 </g>
 <g partID="464090">
  <g transform="translate(22.1738,32.1961)">
   <g transform="matrix(-1,0,0,-1,0,0)">
    <g id="copper0" flipped="1">
     <g transform="matrix(-1, 0, 0, 1, 17.5748, 0)">
      <g>
       <g>
        <g>
         <rect id="connector0pad" height="7.65353" width="5.10235" fill="black" stroke-linecap="round" x="0" y="0" connectorname="1" stroke="black" stroke-width="0.72"/>
         <rect id="connector1pad" height="7.65353" width="5.10235" fill="black" stroke-linecap="round" x="12.4724" y="0" connectorname="2" stroke="black" stroke-width="0.72"/>
         <g id="copper0"/>
        </g>
        <g/>
       </g>
      </g>
     </g>
    </g>
   </g>
  </g>
 </g>
 <g partID="464100">
  <g transform="translate(12.3942,37.4403)">
   <g transform="matrix(0,1,-1,0,0,0)">
    <g id="copper0" flipped="1">
     <g transform="matrix(-1, 0, 0, 1, 17.5748, 0)">
      <g>
       <g>
        <g>
         <rect id="connector0pad" height="7.65353" width="5.10235" fill="black" stroke-linecap="round" x="0" y="0" connectorname="1" stroke="black" stroke-width="0.72"/>
         <rect id="connector1pad" height="7.65353" width="5.10235" fill="black" stroke-linecap="round" x="12.4724" y="0" connectorname="2" stroke="black" stroke-width="0.72"/>
         <g id="copper0"/>
        </g>
        <g/>
       </g>
      </g>
     </g>
    </g>
   </g>
  </g>
 </g>
 <g partID="464110">
  <g transform="translate(63.5551,24.9724)">
   <g transform="matrix(0,-1,1,0,0,0)">
    <g id="copper0" flipped="1">
     <g transform="matrix(-1, 0, 0, 1, 24.1036, 0)">
      <g>
       <g>
        <g>
         <rect id="connector0pad" height="8.50393" width="4.53544" fill="black" stroke-linecap="round" x="0.00453544" y="3.77461" connectorname="P$1" stroke="black" stroke-width="0.72"/>
         <rect id="connector1pad" height="8.50393" width="4.53544" fill="black" stroke-linecap="round" x="19.2801" y="3.77461" connectorname="P$2" stroke="black" stroke-width="0.72"/>
         <rect id="connector3pad" height="15.5905" width="2.83465" fill="black" stroke-linecap="round" x="7.65809" y="6.66595" connectorname="VCC" stroke="black" stroke-width="0.72"/>
         <rect id="connector2pad" height="15.5905" width="2.83465" fill="black" stroke-linecap="round" x="13.3274" y="6.66595" connectorname="GND" stroke="black" stroke-width="0.72"/>
         <g id="copper0"/>
        </g>
        <g/>
       </g>
      </g>
     </g>
    </g>
   </g>
  </g>
 </g>
 <g partID="464120">
  <g transform="translate(65.1351,33.4717)">
   <g transform="matrix(0,1,-1,0,0,0)">
    <g id="copper0" flipped="1">
     <g transform="matrix(-1, 0, 0, 1, 19.2756, 0)">
      <g>
       <g>
        <g>
         <rect id="connector1pad" height="6.80315" width="6.80316" fill="black" stroke-linecap="round" x="0" y="2.14243" connectorname="C" stroke="black" stroke-width="0.72"/>
         <rect id="connector0pad" height="6.80315" width="6.80316" fill="black" stroke-linecap="round" x="12.4725" y="2.14243" connectorname="A" stroke="black" stroke-width="0.72"/>
         <g id="copper0"/>
        </g>
        <g/>
       </g>
      </g>
     </g>
    </g>
   </g>
  </g>
 </g>
 <g partID="464130">
  <g transform="translate(67.6698,51.6135)">
   <g transform="matrix(0,-1,1,0,0,0)">
    <g id="copper0" flipped="1">
     <g transform="matrix(-1, 0, 0, 1, 20.9764, 0)">
      <g>
       <g>
        <g>
         <rect style="fill-rule:nonzero;" fill-opacity="1" height="19.8425" id="connector1pad" width="19.8425" fill="black" x="0.566929" y="0.566928" stroke-width="0.72" stroke="black"/>
         <rect style="fill-rule:nonzero;" fill-opacity="1" height="7.65354" id="connector2pad" width="4.25197" fill="black" x="15.4488" y="26.3622" stroke-width="0.72" stroke="black"/>
         <rect style="fill-rule:nonzero;" fill-opacity="1" height="7.65354" id="connector0pad" width="4.25197" fill="black" x="1.27559" y="26.3622" stroke-width="0.72" stroke="black"/>
        </g>
       </g>
      </g>
     </g>
    </g>
   </g>
  </g>
 </g>
</svg>
